<?xml version="1.0" encoding="utf-8" standalone="no"?>
<!DOCTYPE svg PUBLIC "-//W3C//DTD SVG 1.1//EN"
  "http://www.w3.org/Graphics/SVG/1.1/DTD/svg11.dtd">
<svg xmlns:xlink="http://www.w3.org/1999/xlink" width="1330.56pt" height="703.44pt" viewBox="0 0 1330.56 703.44" xmlns="http://www.w3.org/2000/svg" version="1.1">
 <metadata>
  <rdf:RDF xmlns:dc="http://purl.org/dc/elements/1.1/" xmlns:cc="http://creativecommons.org/ns#" xmlns:rdf="http://www.w3.org/1999/02/22-rdf-syntax-ns#">
   <cc:Work>
    <dc:type rdf:resource="http://purl.org/dc/dcmitype/StillImage"/>
    <dc:date>2022-12-31T18:10:44.298055</dc:date>
    <dc:format>image/svg+xml</dc:format>
    <dc:creator>
     <cc:Agent>
      <dc:title>Matplotlib v3.6.2, https://matplotlib.org/</dc:title>
     </cc:Agent>
    </dc:creator>
   </cc:Work>
  </rdf:RDF>
 </metadata>
 <defs>
  <style type="text/css">*{stroke-linejoin: round; stroke-linecap: butt}</style>
 </defs>
 <g id="figure_1">
  <g id="patch_1">
   <path d="M 0 703.44 
L 1330.56 703.44 
L 1330.56 0 
L 0 0 
z
" style="fill: #ffffff"/>
  </g>
  <g id="axes_1">
   <g id="patch_2">
    <path d="M 431.579683 626.0616 
L 932.244317 626.0616 
L 932.244317 84.4128 
L 431.579683 84.4128 
z
" style="fill: #ffffff"/>
   </g>
   <g id="patch_3">
    <path d="M 561.167261 402.186506 
C 565.463689 402.186506 569.584725 400.479517 572.622759 397.441484 
C 575.660792 394.40345 577.367781 390.282415 577.367781 385.985987 
C 577.367781 381.689559 575.660792 377.568523 572.622759 374.530489 
C 569.584725 371.492456 565.463689 369.785467 561.167261 369.785467 
C 556.870833 369.785467 552.749798 371.492456 549.711764 374.530489 
C 546.673731 377.568523 544.966742 381.689559 544.966742 385.985987 
C 544.966742 390.282415 546.673731 394.40345 549.711764 397.441484 
C 552.749798 400.479517 556.870833 402.186506 561.167261 402.186506 
L 561.167261 402.186506 
z
" clip-path="url(#pf746d9cba1)" style="fill: none; stroke: #ff0000; stroke-linejoin: miter"/>
   </g>
   <g id="patch_4">
    <path d="M 696.470805 490.432573 
C 700.767233 490.432573 704.888269 488.725584 707.926302 485.687551 
C 710.964335 482.649517 712.671324 478.528481 712.671324 474.232054 
C 712.671324 469.935626 710.964335 465.81459 707.926302 462.776556 
C 704.888269 459.738523 700.767233 458.031534 696.470805 458.031534 
C 692.174377 458.031534 688.053341 459.738523 685.015308 462.776556 
C 681.977274 465.81459 680.270285 469.935626 680.270285 474.232054 
C 680.270285 478.528481 681.977274 482.649517 685.015308 485.687551 
C 688.053341 488.725584 692.174377 490.432573 696.470805 490.432573 
L 696.470805 490.432573 
z
" clip-path="url(#pf746d9cba1)" style="fill: none; stroke: #ff0000; stroke-linejoin: miter"/>
   </g>
   <g id="patch_5">
    <path d="M 679.057646 347.287313 
C 683.354074 347.287313 687.47511 345.580324 690.513143 342.542291 
C 693.551177 339.504257 695.258166 335.383222 695.258166 331.086794 
C 695.258166 326.790366 693.551177 322.66933 690.513143 319.631296 
C 687.47511 316.593263 683.354074 314.886274 679.057646 314.886274 
C 674.761218 314.886274 670.640182 316.593263 667.602149 319.631296 
C 664.564116 322.66933 662.857127 326.790366 662.857127 331.086794 
C 662.857127 335.383222 664.564116 339.504257 667.602149 342.542291 
C 670.640182 345.580324 674.761218 347.287313 679.057646 347.287313 
L 679.057646 347.287313 
z
" clip-path="url(#pf746d9cba1)" style="fill: none; stroke: #ff0000; stroke-linejoin: miter"/>
   </g>
   <g id="patch_6">
    <path d="M 618.87374 424.316496 
C 623.170168 424.316496 627.291203 422.609507 630.329237 419.571474 
C 633.36727 416.53344 635.074259 412.412404 635.074259 408.115976 
C 635.074259 403.819548 633.36727 399.698513 630.329237 396.660479 
C 627.291203 393.622446 623.170168 391.915457 618.87374 391.915457 
C 614.577312 391.915457 610.456276 393.622446 607.418243 396.660479 
C 604.380209 399.698513 602.67322 403.819548 602.67322 408.115976 
C 602.67322 412.412404 604.380209 416.53344 607.418243 419.571474 
C 610.456276 422.609507 614.577312 424.316496 618.87374 424.316496 
L 618.87374 424.316496 
z
" clip-path="url(#pf746d9cba1)" style="fill: none; stroke: #ff0000; stroke-linejoin: miter"/>
   </g>
   <g id="patch_7">
    <path d="M 620.823874 433.984164 
C 625.120302 433.984164 629.241338 432.277175 632.279371 429.239142 
C 635.317405 426.201109 637.024394 422.080073 637.024394 417.783645 
C 637.024394 413.487217 635.317405 409.366181 632.279371 406.328148 
C 629.241338 403.290114 625.120302 401.583125 620.823874 401.583125 
C 616.527446 401.583125 612.40641 403.290114 609.368377 406.328148 
C 606.330344 409.366181 604.623355 413.487217 604.623355 417.783645 
C 604.623355 422.080073 606.330344 426.201109 609.368377 429.239142 
C 612.40641 432.277175 616.527446 433.984164 620.823874 433.984164 
L 620.823874 433.984164 
z
" clip-path="url(#pf746d9cba1)" style="fill: none; stroke: #ff0000; stroke-linejoin: miter"/>
   </g>
   <g id="patch_8">
    <path d="M 562.551498 379.653916 
C 566.847926 379.653916 570.968962 377.946927 574.006995 374.908894 
C 577.045029 371.870861 578.752018 367.749825 578.752018 363.453397 
C 578.752018 359.156969 577.045029 355.035933 574.006995 351.9979 
C 570.968962 348.959866 566.847926 347.252877 562.551498 347.252877 
C 558.25507 347.252877 554.134034 348.959866 551.096001 351.9979 
C 548.057968 355.035933 546.350979 359.156969 546.350979 363.453397 
C 546.350979 367.749825 548.057968 371.870861 551.096001 374.908894 
C 554.134034 377.946927 558.25507 379.653916 562.551498 379.653916 
L 562.551498 379.653916 
z
" clip-path="url(#pf746d9cba1)" style="fill: none; stroke: #ff0000; stroke-linejoin: miter"/>
   </g>
   <g id="patch_9">
    <path d="M 606.597817 505.301298 
C 610.894245 505.301298 615.015281 503.594309 618.053314 500.556275 
C 621.091347 497.518242 622.798336 493.397206 622.798336 489.100778 
C 622.798336 484.80435 621.091347 480.683314 618.053314 477.645281 
C 615.015281 474.607248 610.894245 472.900259 606.597817 472.900259 
C 602.301389 472.900259 598.180353 474.607248 595.14232 477.645281 
C 592.104286 480.683314 590.397297 484.80435 590.397297 489.100778 
C 590.397297 493.397206 592.104286 497.518242 595.14232 500.556275 
C 598.180353 503.594309 602.301389 505.301298 606.597817 505.301298 
L 606.597817 505.301298 
z
" clip-path="url(#pf746d9cba1)" style="fill: none; stroke: #ff0000; stroke-linejoin: miter"/>
   </g>
   <g id="patch_10">
    <path d="M 607.234946 363.338947 
C 611.531374 363.338947 615.652409 361.631958 618.690443 358.593924 
C 621.728476 355.555891 623.435465 351.434855 623.435465 347.138427 
C 623.435465 342.841999 621.728476 338.720963 618.690443 335.68293 
C 615.652409 332.644897 611.531374 330.937908 607.234946 330.937908 
C 602.938518 330.937908 598.817482 332.644897 595.779448 335.68293 
C 592.741415 338.720963 591.034426 342.841999 591.034426 347.138427 
C 591.034426 351.434855 592.741415 355.555891 595.779448 358.593924 
C 598.817482 361.631958 602.938518 363.338947 607.234946 363.338947 
L 607.234946 363.338947 
z
" clip-path="url(#pf746d9cba1)" style="fill: none; stroke: #ff0000; stroke-linejoin: miter"/>
   </g>
   <g id="patch_11">
    <path d="M 524.69986 369.59859 
C 528.996288 369.59859 533.117323 367.891601 536.155357 364.853567 
C 539.19339 361.815534 540.900379 357.694498 540.900379 353.39807 
C 540.900379 349.101642 539.19339 344.980606 536.155357 341.942573 
C 533.117323 338.90454 528.996288 337.197551 524.69986 337.197551 
C 520.403432 337.197551 516.282396 338.90454 513.244362 341.942573 
C 510.206329 344.980606 508.49934 349.101642 508.49934 353.39807 
C 508.49934 357.694498 510.206329 361.815534 513.244362 364.853567 
C 516.282396 367.891601 520.403432 369.59859 524.69986 369.59859 
L 524.69986 369.59859 
z
" clip-path="url(#pf746d9cba1)" style="fill: none; stroke: #ff0000; stroke-linejoin: miter"/>
   </g>
   <g id="patch_12">
    <path d="M 762.163686 252.420176 
C 766.460114 252.420176 770.58115 250.713187 773.619183 247.675154 
C 776.657217 244.63712 778.364206 240.516084 778.364206 236.219656 
C 778.364206 231.923228 776.657217 227.802193 773.619183 224.764159 
C 770.58115 221.726126 766.460114 220.019137 762.163686 220.019137 
C 757.867258 220.019137 753.746222 221.726126 750.708189 224.764159 
C 747.670156 227.802193 745.963167 231.923228 745.963167 236.219656 
C 745.963167 240.516084 747.670156 244.63712 750.708189 247.675154 
C 753.746222 250.713187 757.867258 252.420176 762.163686 252.420176 
L 762.163686 252.420176 
z
" clip-path="url(#pf746d9cba1)" style="fill: none; stroke: #ff0000; stroke-linejoin: miter"/>
   </g>
   <g id="matplotlib.axis_1">
    <g id="xtick_1">
     <g id="line2d_1">
      <defs>
       <path id="m643841066a" d="M 0 0 
L 0 3.5 
" style="stroke: #000000; stroke-width: 0.8"/>
      </defs>
      <g>
       <use xlink:href="#m643841066a" x="438.153297" y="626.0616" style="stroke: #000000; stroke-width: 0.8"/>
      </g>
     </g>
     <g id="text_1">
      <!-- 0 -->
      <g transform="translate(434.972047 640.660037) scale(0.1 -0.1)">
       <defs>
        <path id="DejaVuSans-30" d="M 2034 4250 
Q 1547 4250 1301 3770 
Q 1056 3291 1056 2328 
Q 1056 1369 1301 889 
Q 1547 409 2034 409 
Q 2525 409 2770 889 
Q 3016 1369 3016 2328 
Q 3016 3291 2770 3770 
Q 2525 4250 2034 4250 
z
M 2034 4750 
Q 2819 4750 3233 4129 
Q 3647 3509 3647 2328 
Q 3647 1150 3233 529 
Q 2819 -91 2034 -91 
Q 1250 -91 836 529 
Q 422 1150 422 2328 
Q 422 3509 836 4129 
Q 1250 4750 2034 4750 
z
" transform="scale(0.015625)"/>
       </defs>
       <use xlink:href="#DejaVuSans-30"/>
      </g>
     </g>
    </g>
    <g id="xtick_2">
     <g id="line2d_2">
      <g>
       <use xlink:href="#m643841066a" x="502.955375" y="626.0616" style="stroke: #000000; stroke-width: 0.8"/>
      </g>
     </g>
     <g id="text_2">
      <!-- 2 -->
      <g transform="translate(499.774125 640.660037) scale(0.1 -0.1)">
       <defs>
        <path id="DejaVuSans-32" d="M 1228 531 
L 3431 531 
L 3431 0 
L 469 0 
L 469 531 
Q 828 903 1448 1529 
Q 2069 2156 2228 2338 
Q 2531 2678 2651 2914 
Q 2772 3150 2772 3378 
Q 2772 3750 2511 3984 
Q 2250 4219 1831 4219 
Q 1534 4219 1204 4116 
Q 875 4013 500 3803 
L 500 4441 
Q 881 4594 1212 4672 
Q 1544 4750 1819 4750 
Q 2544 4750 2975 4387 
Q 3406 4025 3406 3419 
Q 3406 3131 3298 2873 
Q 3191 2616 2906 2266 
Q 2828 2175 2409 1742 
Q 1991 1309 1228 531 
z
" transform="scale(0.015625)"/>
       </defs>
       <use xlink:href="#DejaVuSans-32"/>
      </g>
     </g>
    </g>
    <g id="xtick_3">
     <g id="line2d_3">
      <g>
       <use xlink:href="#m643841066a" x="567.757453" y="626.0616" style="stroke: #000000; stroke-width: 0.8"/>
      </g>
     </g>
     <g id="text_3">
      <!-- 4 -->
      <g transform="translate(564.576203 640.660037) scale(0.1 -0.1)">
       <defs>
        <path id="DejaVuSans-34" d="M 2419 4116 
L 825 1625 
L 2419 1625 
L 2419 4116 
z
M 2253 4666 
L 3047 4666 
L 3047 1625 
L 3713 1625 
L 3713 1100 
L 3047 1100 
L 3047 0 
L 2419 0 
L 2419 1100 
L 313 1100 
L 313 1709 
L 2253 4666 
z
" transform="scale(0.015625)"/>
       </defs>
       <use xlink:href="#DejaVuSans-34"/>
      </g>
     </g>
    </g>
    <g id="xtick_4">
     <g id="line2d_4">
      <g>
       <use xlink:href="#m643841066a" x="632.559531" y="626.0616" style="stroke: #000000; stroke-width: 0.8"/>
      </g>
     </g>
     <g id="text_4">
      <!-- 6 -->
      <g transform="translate(629.378281 640.660037) scale(0.1 -0.1)">
       <defs>
        <path id="DejaVuSans-36" d="M 2113 2584 
Q 1688 2584 1439 2293 
Q 1191 2003 1191 1497 
Q 1191 994 1439 701 
Q 1688 409 2113 409 
Q 2538 409 2786 701 
Q 3034 994 3034 1497 
Q 3034 2003 2786 2293 
Q 2538 2584 2113 2584 
z
M 3366 4563 
L 3366 3988 
Q 3128 4100 2886 4159 
Q 2644 4219 2406 4219 
Q 1781 4219 1451 3797 
Q 1122 3375 1075 2522 
Q 1259 2794 1537 2939 
Q 1816 3084 2150 3084 
Q 2853 3084 3261 2657 
Q 3669 2231 3669 1497 
Q 3669 778 3244 343 
Q 2819 -91 2113 -91 
Q 1303 -91 875 529 
Q 447 1150 447 2328 
Q 447 3434 972 4092 
Q 1497 4750 2381 4750 
Q 2619 4750 2861 4703 
Q 3103 4656 3366 4563 
z
" transform="scale(0.015625)"/>
       </defs>
       <use xlink:href="#DejaVuSans-36"/>
      </g>
     </g>
    </g>
    <g id="xtick_5">
     <g id="line2d_5">
      <g>
       <use xlink:href="#m643841066a" x="697.361608" y="626.0616" style="stroke: #000000; stroke-width: 0.8"/>
      </g>
     </g>
     <g id="text_5">
      <!-- 8 -->
      <g transform="translate(694.180358 640.660037) scale(0.1 -0.1)">
       <defs>
        <path id="DejaVuSans-38" d="M 2034 2216 
Q 1584 2216 1326 1975 
Q 1069 1734 1069 1313 
Q 1069 891 1326 650 
Q 1584 409 2034 409 
Q 2484 409 2743 651 
Q 3003 894 3003 1313 
Q 3003 1734 2745 1975 
Q 2488 2216 2034 2216 
z
M 1403 2484 
Q 997 2584 770 2862 
Q 544 3141 544 3541 
Q 544 4100 942 4425 
Q 1341 4750 2034 4750 
Q 2731 4750 3128 4425 
Q 3525 4100 3525 3541 
Q 3525 3141 3298 2862 
Q 3072 2584 2669 2484 
Q 3125 2378 3379 2068 
Q 3634 1759 3634 1313 
Q 3634 634 3220 271 
Q 2806 -91 2034 -91 
Q 1263 -91 848 271 
Q 434 634 434 1313 
Q 434 1759 690 2068 
Q 947 2378 1403 2484 
z
M 1172 3481 
Q 1172 3119 1398 2916 
Q 1625 2713 2034 2713 
Q 2441 2713 2670 2916 
Q 2900 3119 2900 3481 
Q 2900 3844 2670 4047 
Q 2441 4250 2034 4250 
Q 1625 4250 1398 4047 
Q 1172 3844 1172 3481 
z
" transform="scale(0.015625)"/>
       </defs>
       <use xlink:href="#DejaVuSans-38"/>
      </g>
     </g>
    </g>
    <g id="xtick_6">
     <g id="line2d_6">
      <g>
       <use xlink:href="#m643841066a" x="762.163686" y="626.0616" style="stroke: #000000; stroke-width: 0.8"/>
      </g>
     </g>
     <g id="text_6">
      <!-- 10 -->
      <g transform="translate(755.801186 640.660037) scale(0.1 -0.1)">
       <defs>
        <path id="DejaVuSans-31" d="M 794 531 
L 1825 531 
L 1825 4091 
L 703 3866 
L 703 4441 
L 1819 4666 
L 2450 4666 
L 2450 531 
L 3481 531 
L 3481 0 
L 794 0 
L 794 531 
z
" transform="scale(0.015625)"/>
       </defs>
       <use xlink:href="#DejaVuSans-31"/>
       <use xlink:href="#DejaVuSans-30" x="63.623047"/>
      </g>
     </g>
    </g>
    <g id="xtick_7">
     <g id="line2d_7">
      <g>
       <use xlink:href="#m643841066a" x="826.965764" y="626.0616" style="stroke: #000000; stroke-width: 0.8"/>
      </g>
     </g>
     <g id="text_7">
      <!-- 12 -->
      <g transform="translate(820.603264 640.660037) scale(0.1 -0.1)">
       <use xlink:href="#DejaVuSans-31"/>
       <use xlink:href="#DejaVuSans-32" x="63.623047"/>
      </g>
     </g>
    </g>
    <g id="xtick_8">
     <g id="line2d_8">
      <g>
       <use xlink:href="#m643841066a" x="891.767842" y="626.0616" style="stroke: #000000; stroke-width: 0.8"/>
      </g>
     </g>
     <g id="text_8">
      <!-- 14 -->
      <g transform="translate(885.405342 640.660037) scale(0.1 -0.1)">
       <use xlink:href="#DejaVuSans-31"/>
       <use xlink:href="#DejaVuSans-34" x="63.623047"/>
      </g>
     </g>
    </g>
    <g id="text_9">
     <!-- x -->
     <g transform="translate(678.952625 654.338162) scale(0.1 -0.1)">
      <defs>
       <path id="DejaVuSans-78" d="M 3513 3500 
L 2247 1797 
L 3578 0 
L 2900 0 
L 1881 1375 
L 863 0 
L 184 0 
L 1544 1831 
L 300 3500 
L 978 3500 
L 1906 2253 
L 2834 3500 
L 3513 3500 
z
" transform="scale(0.015625)"/>
      </defs>
      <use xlink:href="#DejaVuSans-78"/>
     </g>
    </g>
   </g>
   <g id="matplotlib.axis_2">
    <g id="ytick_1">
     <g id="line2d_9">
      <defs>
       <path id="m0d80904e52" d="M 0 0 
L -3.5 0 
" style="stroke: #000000; stroke-width: 0.8"/>
      </defs>
      <g>
       <use xlink:href="#m0d80904e52" x="431.579683" y="625.032123" style="stroke: #000000; stroke-width: 0.8"/>
      </g>
     </g>
     <g id="text_10">
      <!-- −2 -->
      <g transform="translate(409.837496 628.831342) scale(0.1 -0.1)">
       <defs>
        <path id="DejaVuSans-2212" d="M 678 2272 
L 4684 2272 
L 4684 1741 
L 678 1741 
L 678 2272 
z
" transform="scale(0.015625)"/>
       </defs>
       <use xlink:href="#DejaVuSans-2212"/>
       <use xlink:href="#DejaVuSans-32" x="83.789062"/>
      </g>
     </g>
    </g>
    <g id="ytick_2">
     <g id="line2d_10">
      <g>
       <use xlink:href="#m0d80904e52" x="431.579683" y="560.230046" style="stroke: #000000; stroke-width: 0.8"/>
      </g>
     </g>
     <g id="text_11">
      <!-- 0 -->
      <g transform="translate(418.217183 564.029264) scale(0.1 -0.1)">
       <use xlink:href="#DejaVuSans-30"/>
      </g>
     </g>
    </g>
    <g id="ytick_3">
     <g id="line2d_11">
      <g>
       <use xlink:href="#m0d80904e52" x="431.579683" y="495.427968" style="stroke: #000000; stroke-width: 0.8"/>
      </g>
     </g>
     <g id="text_12">
      <!-- 2 -->
      <g transform="translate(418.217183 499.227187) scale(0.1 -0.1)">
       <use xlink:href="#DejaVuSans-32"/>
      </g>
     </g>
    </g>
    <g id="ytick_4">
     <g id="line2d_12">
      <g>
       <use xlink:href="#m0d80904e52" x="431.579683" y="430.62589" style="stroke: #000000; stroke-width: 0.8"/>
      </g>
     </g>
     <g id="text_13">
      <!-- 4 -->
      <g transform="translate(418.217183 434.425109) scale(0.1 -0.1)">
       <use xlink:href="#DejaVuSans-34"/>
      </g>
     </g>
    </g>
    <g id="ytick_5">
     <g id="line2d_13">
      <g>
       <use xlink:href="#m0d80904e52" x="431.579683" y="365.823812" style="stroke: #000000; stroke-width: 0.8"/>
      </g>
     </g>
     <g id="text_14">
      <!-- 6 -->
      <g transform="translate(418.217183 369.623031) scale(0.1 -0.1)">
       <use xlink:href="#DejaVuSans-36"/>
      </g>
     </g>
    </g>
    <g id="ytick_6">
     <g id="line2d_14">
      <g>
       <use xlink:href="#m0d80904e52" x="431.579683" y="301.021734" style="stroke: #000000; stroke-width: 0.8"/>
      </g>
     </g>
     <g id="text_15">
      <!-- 8 -->
      <g transform="translate(418.217183 304.820953) scale(0.1 -0.1)">
       <use xlink:href="#DejaVuSans-38"/>
      </g>
     </g>
    </g>
    <g id="ytick_7">
     <g id="line2d_15">
      <g>
       <use xlink:href="#m0d80904e52" x="431.579683" y="236.219656" style="stroke: #000000; stroke-width: 0.8"/>
      </g>
     </g>
     <g id="text_16">
      <!-- 10 -->
      <g transform="translate(411.854683 240.018875) scale(0.1 -0.1)">
       <use xlink:href="#DejaVuSans-31"/>
       <use xlink:href="#DejaVuSans-30" x="63.623047"/>
      </g>
     </g>
    </g>
    <g id="ytick_8">
     <g id="line2d_16">
      <g>
       <use xlink:href="#m0d80904e52" x="431.579683" y="171.417579" style="stroke: #000000; stroke-width: 0.8"/>
      </g>
     </g>
     <g id="text_17">
      <!-- 12 -->
      <g transform="translate(411.854683 175.216797) scale(0.1 -0.1)">
       <use xlink:href="#DejaVuSans-31"/>
       <use xlink:href="#DejaVuSans-32" x="63.623047"/>
      </g>
     </g>
    </g>
    <g id="ytick_9">
     <g id="line2d_17">
      <g>
       <use xlink:href="#m0d80904e52" x="431.579683" y="106.615501" style="stroke: #000000; stroke-width: 0.8"/>
      </g>
     </g>
     <g id="text_18">
      <!-- 14 -->
      <g transform="translate(411.854683 110.414719) scale(0.1 -0.1)">
       <use xlink:href="#DejaVuSans-31"/>
       <use xlink:href="#DejaVuSans-34" x="63.623047"/>
      </g>
     </g>
    </g>
    <g id="text_19">
     <!-- y -->
     <g transform="translate(403.757808 358.196575) rotate(-90) scale(0.1 -0.1)">
      <defs>
       <path id="DejaVuSans-79" d="M 2059 -325 
Q 1816 -950 1584 -1140 
Q 1353 -1331 966 -1331 
L 506 -1331 
L 506 -850 
L 844 -850 
Q 1081 -850 1212 -737 
Q 1344 -625 1503 -206 
L 1606 56 
L 191 3500 
L 800 3500 
L 1894 763 
L 2988 3500 
L 3597 3500 
L 2059 -325 
z
" transform="scale(0.015625)"/>
      </defs>
      <use xlink:href="#DejaVuSans-79"/>
     </g>
    </g>
   </g>
   <g id="line2d_18">
    <path d="M 454.337166 559.59418 
L 470.437907 558.326368 
L 486.389543 555.799215 
L 502.093727 552.028302 
L 517.453638 547.036877 
L 532.374577 540.855714 
L 546.564899 533.634732 
L 557.480229 527.092381 
L 565.257778 521.596892 
L 570.19208 517.544601 
L 572.633658 515.272532 
L 574.725951 512.819209 
L 576.63298 510.205913 
L 578.320599 507.451719 
L 579.786924 504.573605 
L 581.022915 501.589317 
L 582.020952 498.517254 
L 582.77488 495.376356 
L 583.280052 492.185988 
L 584.858046 477.814711 
L 586.816312 461.746048 
L 588.940329 445.687364 
L 591.004728 430.670163 
L 592.795192 417.819549 
L 594.544655 406.964837 
L 596.054435 399.300557 
L 597.731973 393.421843 
L 599.361246 389.032465 
L 600.969165 385.588987 
L 602.602842 382.725827 
L 604.43262 380.064122 
L 606.467736 377.555746 
L 608.770662 375.139628 
L 611.535318 372.674325 
L 614.684707 370.269119 
L 626.226621 362.300731 
L 633.439613 357.112754 
L 639.007446 352.623188 
L 643.240795 348.618763 
L 646.234826 345.325597 
L 648.568848 342.277086 
L 650.441954 339.373944 
L 652.036632 336.390848 
L 653.500986 333.005757 
L 654.829933 329.203775 
L 658.67682 316.168694 
L 660.905159 309.17247 
L 663.478602 302.43491 
L 666.504659 296.059457 
L 669.911333 290.101806 
L 673.596374 284.600255 
L 677.455649 279.571653 
L 681.384848 274.999321 
L 685.306573 270.85467 
L 689.167869 267.1017 
L 692.930034 263.706506 
L 696.565154 260.638308 
L 700.06042 257.864126 
L 703.403817 255.359279 
L 706.594568 253.097559 
L 709.63692 251.055616 
L 712.539378 249.213026 
L 715.304514 247.525499 
L 718.066975 245.832143 
L 720.795641 244.088982 
L 723.448505 242.235444 
L 726.009998 240.257917 
L 728.472456 238.157621 
L 730.836545 235.946775 
L 733.102898 233.635327 
L 735.274969 231.234449 
L 737.359549 228.756531 
L 739.367312 226.215234 
L 741.313395 223.625672 
L 743.216357 221.00366 
L 745.183263 218.32401 
L 747.128146 215.734261 
L 749.149939 213.204332 
L 751.250448 210.739472 
L 753.42953 208.343911 
L 755.686936 206.022143 
L 758.022294 203.778954 
L 760.435107 201.619476 
L 762.924731 199.549235 
L 765.49035 197.574216 
L 768.130936 195.700921 
L 770.845181 193.936425 
L 773.631418 192.288427 
L 776.487516 190.765299 
L 779.410752 189.376115 
L 782.397662 188.130664 
L 785.443857 187.039444 
L 788.543831 186.113621 
L 791.690729 185.364934 
L 794.876118 184.805562 
L 798.089737 184.447913 
L 801.319267 184.304335 
L 804.550136 184.386744 
L 807.765372 184.706166 
L 810.946357 185.268753 
L 814.073733 186.076942 
" clip-path="url(#pf746d9cba1)" style="fill: none; stroke: #1f77b4; stroke-width: 1.5; stroke-linecap: square"/>
    <defs>
     <path id="m4f887890e7" d="M 0 3 
C 0.795609 3 1.55874 2.683901 2.12132 2.12132 
C 2.683901 1.55874 3 0.795609 3 0 
C 3 -0.795609 2.683901 -1.55874 2.12132 -2.12132 
C 1.55874 -2.683901 0.795609 -3 0 -3 
C -0.795609 -3 -1.55874 -2.683901 -2.12132 -2.12132 
C -2.683901 -1.55874 -3 -0.795609 -3 0 
C -3 0.795609 -2.683901 1.55874 -2.12132 2.12132 
C -1.55874 2.683901 -0.795609 3 0 3 
z
" style="stroke: #1f77b4"/>
    </defs>
    <g clip-path="url(#pf746d9cba1)">
     <use xlink:href="#m4f887890e7" x="454.337166" y="559.59418" style="fill: #1f77b4; stroke: #1f77b4"/>
     <use xlink:href="#m4f887890e7" x="470.437907" y="558.326368" style="fill: #1f77b4; stroke: #1f77b4"/>
     <use xlink:href="#m4f887890e7" x="486.389543" y="555.799215" style="fill: #1f77b4; stroke: #1f77b4"/>
     <use xlink:href="#m4f887890e7" x="502.093727" y="552.028302" style="fill: #1f77b4; stroke: #1f77b4"/>
     <use xlink:href="#m4f887890e7" x="517.453638" y="547.036877" style="fill: #1f77b4; stroke: #1f77b4"/>
     <use xlink:href="#m4f887890e7" x="532.374577" y="540.855714" style="fill: #1f77b4; stroke: #1f77b4"/>
     <use xlink:href="#m4f887890e7" x="546.564899" y="533.634732" style="fill: #1f77b4; stroke: #1f77b4"/>
     <use xlink:href="#m4f887890e7" x="557.480229" y="527.092381" style="fill: #1f77b4; stroke: #1f77b4"/>
     <use xlink:href="#m4f887890e7" x="565.257778" y="521.596892" style="fill: #1f77b4; stroke: #1f77b4"/>
     <use xlink:href="#m4f887890e7" x="570.19208" y="517.544601" style="fill: #1f77b4; stroke: #1f77b4"/>
     <use xlink:href="#m4f887890e7" x="572.633658" y="515.272532" style="fill: #1f77b4; stroke: #1f77b4"/>
     <use xlink:href="#m4f887890e7" x="574.725951" y="512.819209" style="fill: #1f77b4; stroke: #1f77b4"/>
     <use xlink:href="#m4f887890e7" x="576.63298" y="510.205913" style="fill: #1f77b4; stroke: #1f77b4"/>
     <use xlink:href="#m4f887890e7" x="578.320599" y="507.451719" style="fill: #1f77b4; stroke: #1f77b4"/>
     <use xlink:href="#m4f887890e7" x="579.786924" y="504.573605" style="fill: #1f77b4; stroke: #1f77b4"/>
     <use xlink:href="#m4f887890e7" x="581.022915" y="501.589317" style="fill: #1f77b4; stroke: #1f77b4"/>
     <use xlink:href="#m4f887890e7" x="582.020952" y="498.517254" style="fill: #1f77b4; stroke: #1f77b4"/>
     <use xlink:href="#m4f887890e7" x="582.77488" y="495.376356" style="fill: #1f77b4; stroke: #1f77b4"/>
     <use xlink:href="#m4f887890e7" x="583.280052" y="492.185988" style="fill: #1f77b4; stroke: #1f77b4"/>
     <use xlink:href="#m4f887890e7" x="584.858046" y="477.814711" style="fill: #1f77b4; stroke: #1f77b4"/>
     <use xlink:href="#m4f887890e7" x="586.816312" y="461.746048" style="fill: #1f77b4; stroke: #1f77b4"/>
     <use xlink:href="#m4f887890e7" x="588.940329" y="445.687364" style="fill: #1f77b4; stroke: #1f77b4"/>
     <use xlink:href="#m4f887890e7" x="591.004728" y="430.670163" style="fill: #1f77b4; stroke: #1f77b4"/>
     <use xlink:href="#m4f887890e7" x="592.795192" y="417.819549" style="fill: #1f77b4; stroke: #1f77b4"/>
     <use xlink:href="#m4f887890e7" x="594.544655" y="406.964837" style="fill: #1f77b4; stroke: #1f77b4"/>
     <use xlink:href="#m4f887890e7" x="596.054435" y="399.300557" style="fill: #1f77b4; stroke: #1f77b4"/>
     <use xlink:href="#m4f887890e7" x="597.731973" y="393.421843" style="fill: #1f77b4; stroke: #1f77b4"/>
     <use xlink:href="#m4f887890e7" x="599.361246" y="389.032465" style="fill: #1f77b4; stroke: #1f77b4"/>
     <use xlink:href="#m4f887890e7" x="600.969165" y="385.588987" style="fill: #1f77b4; stroke: #1f77b4"/>
     <use xlink:href="#m4f887890e7" x="602.602842" y="382.725827" style="fill: #1f77b4; stroke: #1f77b4"/>
     <use xlink:href="#m4f887890e7" x="604.43262" y="380.064122" style="fill: #1f77b4; stroke: #1f77b4"/>
     <use xlink:href="#m4f887890e7" x="606.467736" y="377.555746" style="fill: #1f77b4; stroke: #1f77b4"/>
     <use xlink:href="#m4f887890e7" x="608.770662" y="375.139628" style="fill: #1f77b4; stroke: #1f77b4"/>
     <use xlink:href="#m4f887890e7" x="611.535318" y="372.674325" style="fill: #1f77b4; stroke: #1f77b4"/>
     <use xlink:href="#m4f887890e7" x="614.684707" y="370.269119" style="fill: #1f77b4; stroke: #1f77b4"/>
     <use xlink:href="#m4f887890e7" x="626.226621" y="362.300731" style="fill: #1f77b4; stroke: #1f77b4"/>
     <use xlink:href="#m4f887890e7" x="633.439613" y="357.112754" style="fill: #1f77b4; stroke: #1f77b4"/>
     <use xlink:href="#m4f887890e7" x="639.007446" y="352.623188" style="fill: #1f77b4; stroke: #1f77b4"/>
     <use xlink:href="#m4f887890e7" x="643.240795" y="348.618763" style="fill: #1f77b4; stroke: #1f77b4"/>
     <use xlink:href="#m4f887890e7" x="646.234826" y="345.325597" style="fill: #1f77b4; stroke: #1f77b4"/>
     <use xlink:href="#m4f887890e7" x="648.568848" y="342.277086" style="fill: #1f77b4; stroke: #1f77b4"/>
     <use xlink:href="#m4f887890e7" x="650.441954" y="339.373944" style="fill: #1f77b4; stroke: #1f77b4"/>
     <use xlink:href="#m4f887890e7" x="652.036632" y="336.390848" style="fill: #1f77b4; stroke: #1f77b4"/>
     <use xlink:href="#m4f887890e7" x="653.500986" y="333.005757" style="fill: #1f77b4; stroke: #1f77b4"/>
     <use xlink:href="#m4f887890e7" x="654.829933" y="329.203775" style="fill: #1f77b4; stroke: #1f77b4"/>
     <use xlink:href="#m4f887890e7" x="658.67682" y="316.168694" style="fill: #1f77b4; stroke: #1f77b4"/>
     <use xlink:href="#m4f887890e7" x="660.905159" y="309.17247" style="fill: #1f77b4; stroke: #1f77b4"/>
     <use xlink:href="#m4f887890e7" x="663.478602" y="302.43491" style="fill: #1f77b4; stroke: #1f77b4"/>
     <use xlink:href="#m4f887890e7" x="666.504659" y="296.059457" style="fill: #1f77b4; stroke: #1f77b4"/>
     <use xlink:href="#m4f887890e7" x="669.911333" y="290.101806" style="fill: #1f77b4; stroke: #1f77b4"/>
     <use xlink:href="#m4f887890e7" x="673.596374" y="284.600255" style="fill: #1f77b4; stroke: #1f77b4"/>
     <use xlink:href="#m4f887890e7" x="677.455649" y="279.571653" style="fill: #1f77b4; stroke: #1f77b4"/>
     <use xlink:href="#m4f887890e7" x="681.384848" y="274.999321" style="fill: #1f77b4; stroke: #1f77b4"/>
     <use xlink:href="#m4f887890e7" x="685.306573" y="270.85467" style="fill: #1f77b4; stroke: #1f77b4"/>
     <use xlink:href="#m4f887890e7" x="689.167869" y="267.1017" style="fill: #1f77b4; stroke: #1f77b4"/>
     <use xlink:href="#m4f887890e7" x="692.930034" y="263.706506" style="fill: #1f77b4; stroke: #1f77b4"/>
     <use xlink:href="#m4f887890e7" x="696.565154" y="260.638308" style="fill: #1f77b4; stroke: #1f77b4"/>
     <use xlink:href="#m4f887890e7" x="700.06042" y="257.864126" style="fill: #1f77b4; stroke: #1f77b4"/>
     <use xlink:href="#m4f887890e7" x="703.403817" y="255.359279" style="fill: #1f77b4; stroke: #1f77b4"/>
     <use xlink:href="#m4f887890e7" x="706.594568" y="253.097559" style="fill: #1f77b4; stroke: #1f77b4"/>
     <use xlink:href="#m4f887890e7" x="709.63692" y="251.055616" style="fill: #1f77b4; stroke: #1f77b4"/>
     <use xlink:href="#m4f887890e7" x="712.539378" y="249.213026" style="fill: #1f77b4; stroke: #1f77b4"/>
     <use xlink:href="#m4f887890e7" x="715.304514" y="247.525499" style="fill: #1f77b4; stroke: #1f77b4"/>
     <use xlink:href="#m4f887890e7" x="718.066975" y="245.832143" style="fill: #1f77b4; stroke: #1f77b4"/>
     <use xlink:href="#m4f887890e7" x="720.795641" y="244.088982" style="fill: #1f77b4; stroke: #1f77b4"/>
     <use xlink:href="#m4f887890e7" x="723.448505" y="242.235444" style="fill: #1f77b4; stroke: #1f77b4"/>
     <use xlink:href="#m4f887890e7" x="726.009998" y="240.257917" style="fill: #1f77b4; stroke: #1f77b4"/>
     <use xlink:href="#m4f887890e7" x="728.472456" y="238.157621" style="fill: #1f77b4; stroke: #1f77b4"/>
     <use xlink:href="#m4f887890e7" x="730.836545" y="235.946775" style="fill: #1f77b4; stroke: #1f77b4"/>
     <use xlink:href="#m4f887890e7" x="733.102898" y="233.635327" style="fill: #1f77b4; stroke: #1f77b4"/>
     <use xlink:href="#m4f887890e7" x="735.274969" y="231.234449" style="fill: #1f77b4; stroke: #1f77b4"/>
     <use xlink:href="#m4f887890e7" x="737.359549" y="228.756531" style="fill: #1f77b4; stroke: #1f77b4"/>
     <use xlink:href="#m4f887890e7" x="739.367312" y="226.215234" style="fill: #1f77b4; stroke: #1f77b4"/>
     <use xlink:href="#m4f887890e7" x="741.313395" y="223.625672" style="fill: #1f77b4; stroke: #1f77b4"/>
     <use xlink:href="#m4f887890e7" x="743.216357" y="221.00366" style="fill: #1f77b4; stroke: #1f77b4"/>
     <use xlink:href="#m4f887890e7" x="745.183263" y="218.32401" style="fill: #1f77b4; stroke: #1f77b4"/>
     <use xlink:href="#m4f887890e7" x="747.128146" y="215.734261" style="fill: #1f77b4; stroke: #1f77b4"/>
     <use xlink:href="#m4f887890e7" x="749.149939" y="213.204332" style="fill: #1f77b4; stroke: #1f77b4"/>
     <use xlink:href="#m4f887890e7" x="751.250448" y="210.739472" style="fill: #1f77b4; stroke: #1f77b4"/>
     <use xlink:href="#m4f887890e7" x="753.42953" y="208.343911" style="fill: #1f77b4; stroke: #1f77b4"/>
     <use xlink:href="#m4f887890e7" x="755.686936" y="206.022143" style="fill: #1f77b4; stroke: #1f77b4"/>
     <use xlink:href="#m4f887890e7" x="758.022294" y="203.778954" style="fill: #1f77b4; stroke: #1f77b4"/>
     <use xlink:href="#m4f887890e7" x="760.435107" y="201.619476" style="fill: #1f77b4; stroke: #1f77b4"/>
     <use xlink:href="#m4f887890e7" x="762.924731" y="199.549235" style="fill: #1f77b4; stroke: #1f77b4"/>
     <use xlink:href="#m4f887890e7" x="765.49035" y="197.574216" style="fill: #1f77b4; stroke: #1f77b4"/>
     <use xlink:href="#m4f887890e7" x="768.130936" y="195.700921" style="fill: #1f77b4; stroke: #1f77b4"/>
     <use xlink:href="#m4f887890e7" x="770.845181" y="193.936425" style="fill: #1f77b4; stroke: #1f77b4"/>
     <use xlink:href="#m4f887890e7" x="773.631418" y="192.288427" style="fill: #1f77b4; stroke: #1f77b4"/>
     <use xlink:href="#m4f887890e7" x="776.487516" y="190.765299" style="fill: #1f77b4; stroke: #1f77b4"/>
     <use xlink:href="#m4f887890e7" x="779.410752" y="189.376115" style="fill: #1f77b4; stroke: #1f77b4"/>
     <use xlink:href="#m4f887890e7" x="782.397662" y="188.130664" style="fill: #1f77b4; stroke: #1f77b4"/>
     <use xlink:href="#m4f887890e7" x="785.443857" y="187.039444" style="fill: #1f77b4; stroke: #1f77b4"/>
     <use xlink:href="#m4f887890e7" x="788.543831" y="186.113621" style="fill: #1f77b4; stroke: #1f77b4"/>
     <use xlink:href="#m4f887890e7" x="791.690729" y="185.364934" style="fill: #1f77b4; stroke: #1f77b4"/>
     <use xlink:href="#m4f887890e7" x="794.876118" y="184.805562" style="fill: #1f77b4; stroke: #1f77b4"/>
     <use xlink:href="#m4f887890e7" x="798.089737" y="184.447913" style="fill: #1f77b4; stroke: #1f77b4"/>
     <use xlink:href="#m4f887890e7" x="801.319267" y="184.304335" style="fill: #1f77b4; stroke: #1f77b4"/>
     <use xlink:href="#m4f887890e7" x="804.550136" y="184.386744" style="fill: #1f77b4; stroke: #1f77b4"/>
     <use xlink:href="#m4f887890e7" x="807.765372" y="184.706166" style="fill: #1f77b4; stroke: #1f77b4"/>
     <use xlink:href="#m4f887890e7" x="810.946357" y="185.268753" style="fill: #1f77b4; stroke: #1f77b4"/>
     <use xlink:href="#m4f887890e7" x="814.073733" y="186.076942" style="fill: #1f77b4; stroke: #1f77b4"/>
    </g>
   </g>
   <g id="line2d_19">
    <defs>
     <path id="md372b59620" d="M -3 3 
L 3 -3 
M -3 -3 
L 3 3 
" style="stroke: #ff7f0e"/>
    </defs>
    <g clip-path="url(#pf746d9cba1)">
     <use xlink:href="#md372b59620" x="762.163686" y="236.219656" style="fill: #ff7f0e; stroke: #ff7f0e"/>
    </g>
   </g>
   <g id="line2d_20">
    <path d="M 454.337166 559.59418 
L 534.444801 504.537728 
L 542.071269 601.4412 
L 454.337166 559.59418 
" clip-path="url(#pf746d9cba1)" style="fill: none; stroke: #008000; stroke-width: 1.5; stroke-linecap: square"/>
   </g>
   <g id="line2d_21">
    <path d="M 470.437907 558.326368 
L 545.978917 497.154465 
L 561.184834 593.16085 
L 470.437907 558.326368 
" clip-path="url(#pf746d9cba1)" style="fill: none; stroke: #008000; stroke-width: 1.5; stroke-linecap: square"/>
   </g>
   <g id="line2d_22">
    <path d="M 486.389543 555.799215 
L 556.898193 488.889005 
L 579.58981 583.406392 
L 486.389543 555.799215 
" clip-path="url(#pf746d9cba1)" style="fill: none; stroke: #008000; stroke-width: 1.5; stroke-linecap: square"/>
   </g>
   <g id="line2d_23">
    <path d="M 502.093727 552.028302 
L 567.135308 479.792308 
L 597.172723 572.237966 
L 502.093727 552.028302 
" clip-path="url(#pf746d9cba1)" style="fill: none; stroke: #008000; stroke-width: 1.5; stroke-linecap: square"/>
   </g>
   <g id="line2d_24">
    <path d="M 517.453638 547.036877 
L 576.627146 469.920459 
L 613.825169 559.724429 
L 517.453638 547.036877 
" clip-path="url(#pf746d9cba1)" style="fill: none; stroke: #008000; stroke-width: 1.5; stroke-linecap: square"/>
   </g>
   <g id="line2d_25">
    <path d="M 532.374577 540.855714 
L 585.315189 459.33432 
L 629.44448 545.942932 
L 532.374577 540.855714 
" clip-path="url(#pf746d9cba1)" style="fill: none; stroke: #008000; stroke-width: 1.5; stroke-linecap: square"/>
   </g>
   <g id="line2d_26">
    <path d="M 546.564899 533.634732 
L 592.946218 448.21097 
L 643.734707 531.090251 
L 546.564899 533.634732 
" clip-path="url(#pf746d9cba1)" style="fill: none; stroke: #008000; stroke-width: 1.5; stroke-linecap: square"/>
   </g>
   <g id="line2d_27">
    <path d="M 557.480229 527.092381 
L 597.016298 438.292915 
L 654.150857 516.931889 
L 557.480229 527.092381 
" clip-path="url(#pf746d9cba1)" style="fill: none; stroke: #008000; stroke-width: 1.5; stroke-linecap: square"/>
   </g>
   <g id="line2d_28">
    <path d="M 565.257778 521.596892 
L 597.704845 429.969201 
L 660.83322 503.883031 
L 565.257778 521.596892 
" clip-path="url(#pf746d9cba1)" style="fill: none; stroke: #008000; stroke-width: 1.5; stroke-linecap: square"/>
   </g>
   <g id="line2d_29">
    <path d="M 570.19208 517.544601 
L 595.350098 423.6536 
L 664.083081 492.386583 
L 570.19208 517.544601 
" clip-path="url(#pf746d9cba1)" style="fill: none; stroke: #008000; stroke-width: 1.5; stroke-linecap: square"/>
   </g>
   <g id="line2d_30">
    <path d="M 572.633658 515.272532 
L 590.347519 419.69709 
L 664.261349 482.825464 
L 572.633658 515.272532 
" clip-path="url(#pf746d9cba1)" style="fill: none; stroke: #008000; stroke-width: 1.5; stroke-linecap: square"/>
   </g>
   <g id="line2d_31">
    <path d="M 574.725951 512.819209 
L 584.886443 416.148581 
L 663.525417 473.283139 
L 574.725951 512.819209 
" clip-path="url(#pf746d9cba1)" style="fill: none; stroke: #008000; stroke-width: 1.5; stroke-linecap: square"/>
   </g>
   <g id="line2d_32">
    <path d="M 576.63298 510.205913 
L 579.17746 413.036106 
L 662.056742 463.824594 
L 576.63298 510.205913 
" clip-path="url(#pf746d9cba1)" style="fill: none; stroke: #008000; stroke-width: 1.5; stroke-linecap: square"/>
   </g>
   <g id="line2d_33">
    <path d="M 578.320599 507.451719 
L 573.233381 410.381815 
L 659.841992 454.511107 
L 578.320599 507.451719 
" clip-path="url(#pf746d9cba1)" style="fill: none; stroke: #008000; stroke-width: 1.5; stroke-linecap: square"/>
   </g>
   <g id="line2d_34">
    <path d="M 579.786924 504.573605 
L 567.099371 408.202074 
L 656.903342 445.400097 
L 579.786924 504.573605 
" clip-path="url(#pf746d9cba1)" style="fill: none; stroke: #008000; stroke-width: 1.5; stroke-linecap: square"/>
   </g>
   <g id="line2d_35">
    <path d="M 581.022915 501.589317 
L 560.813251 406.510322 
L 653.258908 436.547737 
L 581.022915 501.589317 
" clip-path="url(#pf746d9cba1)" style="fill: none; stroke: #008000; stroke-width: 1.5; stroke-linecap: square"/>
   </g>
   <g id="line2d_36">
    <path d="M 582.020952 498.517254 
L 554.413775 405.316987 
L 648.931162 428.008604 
L 582.020952 498.517254 
" clip-path="url(#pf746d9cba1)" style="fill: none; stroke: #008000; stroke-width: 1.5; stroke-linecap: square"/>
   </g>
   <g id="line2d_37">
    <path d="M 582.77488 495.376356 
L 547.940398 404.629429 
L 643.946783 419.835346 
L 582.77488 495.376356 
" clip-path="url(#pf746d9cba1)" style="fill: none; stroke: #008000; stroke-width: 1.5; stroke-linecap: square"/>
   </g>
   <g id="line2d_38">
    <path d="M 583.280052 492.185988 
L 541.433032 404.451885 
L 638.336504 412.078354 
L 583.280052 492.185988 
" clip-path="url(#pf746d9cba1)" style="fill: none; stroke: #008000; stroke-width: 1.5; stroke-linecap: square"/>
   </g>
   <g id="line2d_39">
    <path d="M 584.858046 477.814711 
L 546.915706 388.322674 
L 643.389254 400.209662 
L 584.858046 477.814711 
" clip-path="url(#pf746d9cba1)" style="fill: none; stroke: #008000; stroke-width: 1.5; stroke-linecap: square"/>
   </g>
   <g id="line2d_40">
    <path d="M 586.816312 461.746048 
L 552.179865 370.92335 
L 648.152852 386.338656 
L 586.816312 461.746048 
" clip-path="url(#pf746d9cba1)" style="fill: none; stroke: #008000; stroke-width: 1.5; stroke-linecap: square"/>
   </g>
   <g id="line2d_41">
    <path d="M 588.940329 445.687364 
L 552.59798 355.53372 
L 648.844501 369.137145 
L 588.940329 445.687364 
" clip-path="url(#pf746d9cba1)" style="fill: none; stroke: #008000; stroke-width: 1.5; stroke-linecap: square"/>
   </g>
   <g id="line2d_42">
    <path d="M 591.004728 430.670163 
L 552.176354 341.558979 
L 648.763091 352.488212 
L 591.004728 430.670163 
" clip-path="url(#pf746d9cba1)" style="fill: none; stroke: #008000; stroke-width: 1.5; stroke-linecap: square"/>
   </g>
   <g id="line2d_43">
    <path d="M 592.795192 417.819549 
L 555.677228 327.982459 
L 652.037412 340.755904 
L 592.795192 417.819549 
" clip-path="url(#pf746d9cba1)" style="fill: none; stroke: #008000; stroke-width: 1.5; stroke-linecap: square"/>
   </g>
   <g id="line2d_44">
    <path d="M 594.544655 406.964837 
L 564.589651 314.492443 
L 659.650595 334.786846 
L 594.544655 406.964837 
" clip-path="url(#pf746d9cba1)" style="fill: none; stroke: #008000; stroke-width: 1.5; stroke-linecap: square"/>
   </g>
   <g id="line2d_45">
    <path d="M 596.054435 399.300557 
L 573.447072 304.762982 
L 666.622695 332.453219 
L 596.054435 399.300557 
" clip-path="url(#pf746d9cba1)" style="fill: none; stroke: #008000; stroke-width: 1.5; stroke-linecap: square"/>
   </g>
   <g id="line2d_46">
    <path d="M 597.731973 393.421843 
L 582.611634 297.401943 
L 673.327477 332.317295 
L 597.731973 393.421843 
" clip-path="url(#pf746d9cba1)" style="fill: none; stroke: #008000; stroke-width: 1.5; stroke-linecap: square"/>
   </g>
   <g id="line2d_47">
    <path d="M 599.361246 389.032465 
L 591.821153 292.122234 
L 679.517921 334.047437 
L 599.361246 389.032465 
" clip-path="url(#pf746d9cba1)" style="fill: none; stroke: #008000; stroke-width: 1.5; stroke-linecap: square"/>
   </g>
   <g id="line2d_48">
    <path d="M 600.969165 385.588987 
L 601.055805 288.385909 
L 685.19282 337.06248 
L 600.969165 385.588987 
" clip-path="url(#pf746d9cba1)" style="fill: none; stroke: #008000; stroke-width: 1.5; stroke-linecap: square"/>
   </g>
   <g id="line2d_49">
    <path d="M 602.602842 382.725827 
L 610.315679 285.829191 
L 690.374209 340.957022 
L 602.602842 382.725827 
" clip-path="url(#pf746d9cba1)" style="fill: none; stroke: #008000; stroke-width: 1.5; stroke-linecap: square"/>
   </g>
   <g id="line2d_50">
    <path d="M 604.43262 380.064122 
L 619.724104 284.071329 
L 695.21056 345.310539 
L 604.43262 380.064122 
" clip-path="url(#pf746d9cba1)" style="fill: none; stroke: #008000; stroke-width: 1.5; stroke-linecap: square"/>
   </g>
   <g id="line2d_51">
    <path d="M 606.467736 377.555746 
L 629.243589 283.058622 
L 699.692572 350.031652 
L 606.467736 377.555746 
" clip-path="url(#pf746d9cba1)" style="fill: none; stroke: #008000; stroke-width: 1.5; stroke-linecap: square"/>
   </g>
   <g id="line2d_52">
    <path d="M 608.770662 375.139628 
L 638.890464 282.72078 
L 703.867633 355.014718 
L 608.770662 375.139628 
" clip-path="url(#pf746d9cba1)" style="fill: none; stroke: #008000; stroke-width: 1.5; stroke-linecap: square"/>
   </g>
   <g id="line2d_53">
    <path d="M 611.535318 372.674325 
L 648.81337 282.903546 
L 707.918119 360.072675 
L 611.535318 372.674325 
" clip-path="url(#pf746d9cba1)" style="fill: none; stroke: #008000; stroke-width: 1.5; stroke-linecap: square"/>
   </g>
   <g id="line2d_54">
    <path d="M 614.684707 370.269119 
L 658.680981 283.592861 
L 711.746686 365.032881 
L 614.684707 370.269119 
" clip-path="url(#pf746d9cba1)" style="fill: none; stroke: #008000; stroke-width: 1.5; stroke-linecap: square"/>
   </g>
   <g id="line2d_55">
    <path d="M 626.226621 362.300731 
L 667.431519 274.263226 
L 723.071786 353.966466 
L 626.226621 362.300731 
" clip-path="url(#pf746d9cba1)" style="fill: none; stroke: #008000; stroke-width: 1.5; stroke-linecap: square"/>
   </g>
   <g id="line2d_56">
    <path d="M 633.439613 357.112754 
L 667.610146 266.11374 
L 729.332338 341.205797 
L 633.439613 357.112754 
" clip-path="url(#pf746d9cba1)" style="fill: none; stroke: #008000; stroke-width: 1.5; stroke-linecap: square"/>
   </g>
   <g id="line2d_57">
    <path d="M 639.007446 352.623188 
L 665.932943 259.223705 
L 733.35652 329.241611 
L 639.007446 352.623188 
" clip-path="url(#pf746d9cba1)" style="fill: none; stroke: #008000; stroke-width: 1.5; stroke-linecap: square"/>
   </g>
   <g id="line2d_58">
    <path d="M 643.240795 348.618763 
L 662.75525 253.394648 
L 735.464525 317.906719 
L 643.240795 348.618763 
" clip-path="url(#pf746d9cba1)" style="fill: none; stroke: #008000; stroke-width: 1.5; stroke-linecap: square"/>
   </g>
   <g id="line2d_59">
    <path d="M 646.234826 345.325597 
L 658.217926 248.86394 
L 735.764621 307.472438 
L 646.234826 345.325597 
" clip-path="url(#pf746d9cba1)" style="fill: none; stroke: #008000; stroke-width: 1.5; stroke-linecap: square"/>
   </g>
   <g id="line2d_60">
    <path d="M 648.568848 342.277086 
L 652.946715 245.172605 
L 734.852729 297.516189 
L 648.568848 342.277086 
" clip-path="url(#pf746d9cba1)" style="fill: none; stroke: #008000; stroke-width: 1.5; stroke-linecap: square"/>
   </g>
   <g id="line2d_61">
    <path d="M 650.441954 339.373944 
L 647.187596 242.225321 
L 732.947951 287.981275 
L 650.441954 339.373944 
" clip-path="url(#pf746d9cba1)" style="fill: none; stroke: #008000; stroke-width: 1.5; stroke-linecap: square"/>
   </g>
   <g id="line2d_62">
    <path d="M 652.036632 336.390848 
L 641.170112 239.797036 
L 730.256068 278.68326 
L 652.036632 336.390848 
" clip-path="url(#pf746d9cba1)" style="fill: none; stroke: #008000; stroke-width: 1.5; stroke-linecap: square"/>
   </g>
   <g id="line2d_63">
    <path d="M 653.500986 333.005757 
L 635.089301 237.562289 
L 726.951612 269.339036 
L 653.500986 333.005757 
" clip-path="url(#pf746d9cba1)" style="fill: none; stroke: #008000; stroke-width: 1.5; stroke-linecap: square"/>
   </g>
   <g id="line2d_64">
    <path d="M 654.829933 329.203775 
L 630.219086 235.167866 
L 723.961995 260.872202 
L 654.829933 329.203775 
" clip-path="url(#pf746d9cba1)" style="fill: none; stroke: #008000; stroke-width: 1.5; stroke-linecap: square"/>
   </g>
   <g id="line2d_65">
    <path d="M 658.67682 316.168694 
L 635.883223 221.675849 
L 729.113226 249.182437 
L 658.67682 316.168694 
" clip-path="url(#pf746d9cba1)" style="fill: none; stroke: #008000; stroke-width: 1.5; stroke-linecap: square"/>
   </g>
   <g id="line2d_66">
    <path d="M 660.905159 309.17247 
L 645.59565 213.182549 
L 736.380114 247.919086 
L 660.905159 309.17247 
" clip-path="url(#pf746d9cba1)" style="fill: none; stroke: #008000; stroke-width: 1.5; stroke-linecap: square"/>
   </g>
   <g id="line2d_67">
    <path d="M 663.478602 302.43491 
L 655.74757 205.539724 
L 743.526779 247.292047 
L 663.478602 302.43491 
" clip-path="url(#pf746d9cba1)" style="fill: none; stroke: #008000; stroke-width: 1.5; stroke-linecap: square"/>
   </g>
   <g id="line2d_68">
    <path d="M 666.504659 296.059457 
L 666.399768 198.856397 
L 750.632533 247.367088 
L 666.504659 296.059457 
" clip-path="url(#pf746d9cba1)" style="fill: none; stroke: #008000; stroke-width: 1.5; stroke-linecap: square"/>
   </g>
   <g id="line2d_69">
    <path d="M 669.911333 290.101806 
L 677.045025 193.160811 
L 757.431543 247.809267 
L 669.911333 290.101806 
" clip-path="url(#pf746d9cba1)" style="fill: none; stroke: #008000; stroke-width: 1.5; stroke-linecap: square"/>
   </g>
   <g id="line2d_70">
    <path d="M 673.596374 284.600255 
L 686.866291 188.307185 
L 763.623577 247.945806 
L 673.596374 284.600255 
" clip-path="url(#pf746d9cba1)" style="fill: none; stroke: #008000; stroke-width: 1.5; stroke-linecap: square"/>
   </g>
   <g id="line2d_71">
    <path d="M 677.455649 279.571653 
L 695.943605 184.142928 
L 769.343327 247.86833 
L 677.455649 279.571653 
" clip-path="url(#pf746d9cba1)" style="fill: none; stroke: #008000; stroke-width: 1.5; stroke-linecap: square"/>
   </g>
   <g id="line2d_72">
    <path d="M 681.384848 274.999321 
L 704.344049 180.546576 
L 774.662925 247.6562 
L 681.384848 274.999321 
" clip-path="url(#pf746d9cba1)" style="fill: none; stroke: #008000; stroke-width: 1.5; stroke-linecap: square"/>
   </g>
   <g id="line2d_73">
    <path d="M 685.306573 270.85467 
L 712.135774 177.42748 
L 779.631494 247.375844 
L 685.306573 270.85467 
" clip-path="url(#pf746d9cba1)" style="fill: none; stroke: #008000; stroke-width: 1.5; stroke-linecap: square"/>
   </g>
   <g id="line2d_74">
    <path d="M 689.167869 267.1017 
L 719.380792 174.713253 
L 784.285073 247.072635 
L 689.167869 267.1017 
" clip-path="url(#pf746d9cba1)" style="fill: none; stroke: #008000; stroke-width: 1.5; stroke-linecap: square"/>
   </g>
   <g id="line2d_75">
    <path d="M 692.930034 263.706506 
L 726.141051 172.352939 
L 788.650052 246.791307 
L 692.930034 263.706506 
" clip-path="url(#pf746d9cba1)" style="fill: none; stroke: #008000; stroke-width: 1.5; stroke-linecap: square"/>
   </g>
   <g id="line2d_76">
    <path d="M 696.565154 260.638308 
L 732.476862 170.312259 
L 792.745661 246.575734 
L 696.565154 260.638308 
" clip-path="url(#pf746d9cba1)" style="fill: none; stroke: #008000; stroke-width: 1.5; stroke-linecap: square"/>
   </g>
   <g id="line2d_77">
    <path d="M 700.06042 257.864126 
L 738.440234 168.55883 
L 796.590981 246.449372 
L 700.06042 257.864126 
" clip-path="url(#pf746d9cba1)" style="fill: none; stroke: #008000; stroke-width: 1.5; stroke-linecap: square"/>
   </g>
   <g id="line2d_78">
    <path d="M 703.403817 255.359279 
L 744.091186 167.0814 
L 800.198388 246.456635 
L 703.403817 255.359279 
" clip-path="url(#pf746d9cba1)" style="fill: none; stroke: #008000; stroke-width: 1.5; stroke-linecap: square"/>
   </g>
   <g id="line2d_79">
    <path d="M 706.594568 253.097559 
L 749.486742 165.869654 
L 803.582236 246.629318 
L 706.594568 253.097559 
" clip-path="url(#pf746d9cba1)" style="fill: none; stroke: #008000; stroke-width: 1.5; stroke-linecap: square"/>
   </g>
   <g id="line2d_80">
    <path d="M 709.63692 251.055616 
L 754.693371 164.925702 
L 806.755839 247.010691 
L 709.63692 251.055616 
" clip-path="url(#pf746d9cba1)" style="fill: none; stroke: #008000; stroke-width: 1.5; stroke-linecap: square"/>
   </g>
   <g id="line2d_81">
    <path d="M 712.539378 249.213026 
L 759.800207 164.272694 
L 809.730278 247.671939 
L 712.539378 249.213026 
" clip-path="url(#pf746d9cba1)" style="fill: none; stroke: #008000; stroke-width: 1.5; stroke-linecap: square"/>
   </g>
   <g id="line2d_82">
    <path d="M 715.304514 247.525499 
L 763.442855 163.079386 
L 812.506164 246.991469 
L 715.304514 247.525499 
" clip-path="url(#pf746d9cba1)" style="fill: none; stroke: #008000; stroke-width: 1.5; stroke-linecap: square"/>
   </g>
   <g id="line2d_83">
    <path d="M 718.066975 245.832143 
L 763.540398 159.921644 
L 815.204361 242.258032 
L 718.066975 245.832143 
" clip-path="url(#pf746d9cba1)" style="fill: none; stroke: #008000; stroke-width: 1.5; stroke-linecap: square"/>
   </g>
   <g id="line2d_84">
    <path d="M 720.795641 244.088982 
L 762.139432 156.116618 
L 817.653839 235.907573 
L 720.795641 244.088982 
" clip-path="url(#pf746d9cba1)" style="fill: none; stroke: #008000; stroke-width: 1.5; stroke-linecap: square"/>
   </g>
   <g id="line2d_85">
    <path d="M 723.448505 242.235444 
L 760.214886 152.253895 
L 819.758003 229.085289 
L 723.448505 242.235444 
" clip-path="url(#pf746d9cba1)" style="fill: none; stroke: #008000; stroke-width: 1.5; stroke-linecap: square"/>
   </g>
   <g id="line2d_86">
    <path d="M 726.009998 240.257917 
L 758.443567 148.625448 
L 821.582829 222.529977 
L 726.009998 240.257917 
" clip-path="url(#pf746d9cba1)" style="fill: none; stroke: #008000; stroke-width: 1.5; stroke-linecap: square"/>
   </g>
   <g id="line2d_87">
    <path d="M 728.472456 238.157621 
L 756.652667 145.129014 
L 823.127698 216.048096 
L 728.472456 238.157621 
" clip-path="url(#pf746d9cba1)" style="fill: none; stroke: #008000; stroke-width: 1.5; stroke-linecap: square"/>
   </g>
   <g id="line2d_88">
    <path d="M 730.836545 235.946775 
L 754.921639 141.774835 
L 824.434384 209.719108 
L 730.836545 235.946775 
" clip-path="url(#pf746d9cba1)" style="fill: none; stroke: #008000; stroke-width: 1.5; stroke-linecap: square"/>
   </g>
   <g id="line2d_89">
    <path d="M 733.102898 233.635327 
L 753.344662 138.56316 
L 825.558692 203.629126 
L 733.102898 233.635327 
" clip-path="url(#pf746d9cba1)" style="fill: none; stroke: #008000; stroke-width: 1.5; stroke-linecap: square"/>
   </g>
   <g id="line2d_90">
    <path d="M 735.274969 231.234449 
L 752.029611 135.486196 
L 826.572709 197.870269 
L 735.274969 231.234449 
" clip-path="url(#pf746d9cba1)" style="fill: none; stroke: #008000; stroke-width: 1.5; stroke-linecap: square"/>
   </g>
   <g id="line2d_91">
    <path d="M 737.359549 228.756531 
L 751.099846 132.529455 
L 827.56479 192.542439 
L 737.359549 228.756531 
" clip-path="url(#pf746d9cba1)" style="fill: none; stroke: #008000; stroke-width: 1.5; stroke-linecap: square"/>
   </g>
   <g id="line2d_92">
    <path d="M 739.367312 226.215234 
L 750.701355 129.675163 
L 828.640487 187.760767 
L 739.367312 226.215234 
" clip-path="url(#pf746d9cba1)" style="fill: none; stroke: #008000; stroke-width: 1.5; stroke-linecap: square"/>
   </g>
   <g id="line2d_93">
    <path d="M 741.313395 223.625672 
L 751.008507 126.907262 
L 829.921551 183.66268 
L 741.313395 223.625672 
" clip-path="url(#pf746d9cba1)" style="fill: none; stroke: #008000; stroke-width: 1.5; stroke-linecap: square"/>
   </g>
   <g id="line2d_94">
    <path d="M 743.216357 221.00366 
L 752.103117 124.20763 
L 831.487558 180.301805 
L 743.216357 221.00366 
" clip-path="url(#pf746d9cba1)" style="fill: none; stroke: #008000; stroke-width: 1.5; stroke-linecap: square"/>
   </g>
   <g id="line2d_95">
    <path d="M 745.183263 218.32401 
L 756.770655 121.81402 
L 834.557062 180.103992 
L 745.183263 218.32401 
" clip-path="url(#pf746d9cba1)" style="fill: none; stroke: #008000; stroke-width: 1.5; stroke-linecap: square"/>
   </g>
   <g id="line2d_96">
    <path d="M 747.128146 215.734261 
L 761.677233 119.626145 
L 837.634759 180.280082 
L 747.128146 215.734261 
" clip-path="url(#pf746d9cba1)" style="fill: none; stroke: #008000; stroke-width: 1.5; stroke-linecap: square"/>
   </g>
   <g id="line2d_97">
    <path d="M 749.149939 213.204332 
L 766.719562 117.60227 
L 840.728565 180.619041 
L 749.149939 213.204332 
" clip-path="url(#pf746d9cba1)" style="fill: none; stroke: #008000; stroke-width: 1.5; stroke-linecap: square"/>
   </g>
   <g id="line2d_98">
    <path d="M 751.250448 210.739472 
L 771.900532 115.755158 
L 843.834319 181.130813 
L 751.250448 210.739472 
" clip-path="url(#pf746d9cba1)" style="fill: none; stroke: #008000; stroke-width: 1.5; stroke-linecap: square"/>
   </g>
   <g id="line2d_99">
    <path d="M 753.42953 208.343911 
L 777.220762 114.097303 
L 846.945103 181.824418 
L 753.42953 208.343911 
" clip-path="url(#pf746d9cba1)" style="fill: none; stroke: #008000; stroke-width: 1.5; stroke-linecap: square"/>
   </g>
   <g id="line2d_100">
    <path d="M 755.686936 206.022143 
L 782.681176 112.642504 
L 850.053195 182.710022 
L 755.686936 206.022143 
" clip-path="url(#pf746d9cba1)" style="fill: none; stroke: #008000; stroke-width: 1.5; stroke-linecap: square"/>
   </g>
   <g id="line2d_101">
    <path d="M 758.022294 203.778954 
L 788.283237 111.406224 
L 853.149897 183.799334 
L 758.022294 203.778954 
" clip-path="url(#pf746d9cba1)" style="fill: none; stroke: #008000; stroke-width: 1.5; stroke-linecap: square"/>
   </g>
   <g id="line2d_102">
    <path d="M 760.435107 201.619476 
L 794.028823 110.405945 
L 856.2252 185.105722 
L 760.435107 201.619476 
" clip-path="url(#pf746d9cba1)" style="fill: none; stroke: #008000; stroke-width: 1.5; stroke-linecap: square"/>
   </g>
   <g id="line2d_103">
    <path d="M 762.924731 199.549235 
L 799.919908 109.661511 
L 859.267371 186.644136 
L 762.924731 199.549235 
" clip-path="url(#pf746d9cba1)" style="fill: none; stroke: #008000; stroke-width: 1.5; stroke-linecap: square"/>
   </g>
   <g id="line2d_104">
    <path d="M 765.49035 197.574216 
L 805.958088 109.19544 
L 862.262485 188.430917 
L 765.49035 197.574216 
" clip-path="url(#pf746d9cba1)" style="fill: none; stroke: #008000; stroke-width: 1.5; stroke-linecap: square"/>
   </g>
   <g id="line2d_105">
    <path d="M 768.130936 195.700921 
L 812.144025 109.0332 
L 865.193929 190.483514 
L 768.130936 195.700921 
" clip-path="url(#pf746d9cba1)" style="fill: none; stroke: #008000; stroke-width: 1.5; stroke-linecap: square"/>
   </g>
   <g id="line2d_106">
    <path d="M 770.845181 193.936425 
L 818.476786 109.203455 
L 868.041888 192.820119 
L 770.845181 193.936425 
" clip-path="url(#pf746d9cba1)" style="fill: none; stroke: #008000; stroke-width: 1.5; stroke-linecap: square"/>
   </g>
   <g id="line2d_107">
    <path d="M 773.631418 192.288427 
L 824.953084 109.738246 
L 870.782805 195.459203 
L 773.631418 192.288427 
" clip-path="url(#pf746d9cba1)" style="fill: none; stroke: #008000; stroke-width: 1.5; stroke-linecap: square"/>
   </g>
   <g id="line2d_108">
    <path d="M 776.487516 190.765299 
L 831.566402 110.673089 
L 873.388848 198.418909 
L 776.487516 190.765299 
" clip-path="url(#pf746d9cba1)" style="fill: none; stroke: #008000; stroke-width: 1.5; stroke-linecap: square"/>
   </g>
   <g id="line2d_109">
    <path d="M 779.410752 189.376115 
L 838.305969 112.046952 
L 875.82738 201.716287 
L 779.410752 189.376115 
" clip-path="url(#pf746d9cba1)" style="fill: none; stroke: #008000; stroke-width: 1.5; stroke-linecap: square"/>
   </g>
   <g id="line2d_110">
    <path d="M 782.397662 188.130664 
L 845.155585 113.902037 
L 878.060499 205.366306 
L 782.397662 188.130664 
" clip-path="url(#pf746d9cba1)" style="fill: none; stroke: #008000; stroke-width: 1.5; stroke-linecap: square"/>
   </g>
   <g id="line2d_111">
    <path d="M 785.443857 187.039444 
L 852.09231 116.283317 
L 880.044688 209.380634 
L 785.443857 187.039444 
" clip-path="url(#pf746d9cba1)" style="fill: none; stroke: #008000; stroke-width: 1.5; stroke-linecap: square"/>
   </g>
   <g id="line2d_112">
    <path d="M 788.543831 186.113621 
L 859.085021 119.237717 
L 881.730657 213.766132 
L 788.543831 186.113621 
" clip-path="url(#pf746d9cba1)" style="fill: none; stroke: #008000; stroke-width: 1.5; stroke-linecap: square"/>
   </g>
   <g id="line2d_113">
    <path d="M 791.690729 185.364934 
L 866.092916 122.812871 
L 883.063498 218.523085 
L 791.690729 185.364934 
" clip-path="url(#pf746d9cba1)" style="fill: none; stroke: #008000; stroke-width: 1.5; stroke-linecap: square"/>
   </g>
   <g id="line2d_114">
    <path d="M 794.876118 184.805562 
L 873.064074 127.055328 
L 883.983266 223.643201 
L 794.876118 184.805562 
" clip-path="url(#pf746d9cba1)" style="fill: none; stroke: #008000; stroke-width: 1.5; stroke-linecap: square"/>
   </g>
   <g id="line2d_115">
    <path d="M 798.089737 184.447913 
L 879.934221 132.008173 
L 884.426126 229.107445 
L 798.089737 184.447913 
" clip-path="url(#pf746d9cba1)" style="fill: none; stroke: #008000; stroke-width: 1.5; stroke-linecap: square"/>
   </g>
   <g id="line2d_116">
    <path d="M 801.319267 184.304335 
L 886.625933 137.707997 
L 884.326212 234.883906 
L 801.319267 184.304335 
" clip-path="url(#pf746d9cba1)" style="fill: none; stroke: #008000; stroke-width: 1.5; stroke-linecap: square"/>
   </g>
   <g id="line2d_117">
    <path d="M 804.550136 184.386744 
L 893.048543 144.181299 
L 883.618276 240.92589 
L 804.550136 184.386744 
" clip-path="url(#pf746d9cba1)" style="fill: none; stroke: #008000; stroke-width: 1.5; stroke-linecap: square"/>
   </g>
   <g id="line2d_118">
    <path d="M 807.765372 184.706166 
L 899.099039 151.44046 
L 882.241152 247.170589 
L 807.765372 184.706166 
" clip-path="url(#pf746d9cba1)" style="fill: none; stroke: #008000; stroke-width: 1.5; stroke-linecap: square"/>
   </g>
   <g id="line2d_119">
    <path d="M 810.946357 185.268753 
L 904.60847 159.271552 
L 880.291651 253.383922 
L 810.946357 185.268753 
" clip-path="url(#pf746d9cba1)" style="fill: none; stroke: #008000; stroke-width: 1.5; stroke-linecap: square"/>
   </g>
   <g id="line2d_120">
    <path d="M 814.073733 186.076942 
L 909.486834 167.508525 
L 877.861004 259.422903 
L 814.073733 186.076942 
" clip-path="url(#pf746d9cba1)" style="fill: none; stroke: #008000; stroke-width: 1.5; stroke-linecap: square"/>
   </g>
   <g id="patch_13">
    <path d="M 431.579683 626.0616 
L 431.579683 84.4128 
" style="fill: none; stroke: #000000; stroke-width: 0.8; stroke-linejoin: miter; stroke-linecap: square"/>
   </g>
   <g id="patch_14">
    <path d="M 932.244317 626.0616 
L 932.244317 84.4128 
" style="fill: none; stroke: #000000; stroke-width: 0.8; stroke-linejoin: miter; stroke-linecap: square"/>
   </g>
   <g id="patch_15">
    <path d="M 431.579683 626.0616 
L 932.244317 626.0616 
" style="fill: none; stroke: #000000; stroke-width: 0.8; stroke-linejoin: miter; stroke-linecap: square"/>
   </g>
   <g id="patch_16">
    <path d="M 431.579683 84.4128 
L 932.244317 84.4128 
" style="fill: none; stroke: #000000; stroke-width: 0.8; stroke-linejoin: miter; stroke-linecap: square"/>
   </g>
  </g>
 </g>
 <defs>
  <clipPath id="pf746d9cba1">
   <rect x="431.579683" y="84.4128" width="500.664634" height="541.6488"/>
  </clipPath>
 </defs>
</svg>
