<?xml version="1.0" encoding="utf-8" standalone="no"?>
<!DOCTYPE svg PUBLIC "-//W3C//DTD SVG 1.1//EN"
  "http://www.w3.org/Graphics/SVG/1.1/DTD/svg11.dtd">
<svg xmlns:xlink="http://www.w3.org/1999/xlink" width="576pt" height="576pt" viewBox="0 0 576 576" xmlns="http://www.w3.org/2000/svg" version="1.1">
 <metadata>
  <rdf:RDF xmlns:dc="http://purl.org/dc/elements/1.1/" xmlns:cc="http://creativecommons.org/ns#" xmlns:rdf="http://www.w3.org/1999/02/22-rdf-syntax-ns#">
   <cc:Work>
    <dc:type rdf:resource="http://purl.org/dc/dcmitype/StillImage"/>
    <dc:date>2022-12-27T20:58:41.128341</dc:date>
    <dc:format>image/svg+xml</dc:format>
    <dc:creator>
     <cc:Agent>
      <dc:title>Matplotlib v3.6.2, https://matplotlib.org/</dc:title>
     </cc:Agent>
    </dc:creator>
   </cc:Work>
  </rdf:RDF>
 </metadata>
 <defs>
  <style type="text/css">*{stroke-linejoin: round; stroke-linecap: butt}</style>
 </defs>
 <g id="figure_1">
  <g id="patch_1">
   <path d="M 0 576 
L 576 576 
L 576 0 
L 0 0 
z
" style="fill: #ffffff"/>
  </g>
  <g id="axes_1">
   <g id="patch_2">
    <path d="M 30.528 548.352 
L 565.056 548.352 
L 565.056 10.944 
L 30.528 10.944 
z
" style="fill: #ffffff"/>
   </g>
   <g id="patch_3">
    <path d="M 217.751743 328.993194 
C 223.587672 328.993194 229.185362 326.775228 233.311987 322.827777 
C 237.438612 318.880325 239.757252 313.525681 239.757252 307.943142 
C 239.757252 302.360603 237.438612 297.005959 233.311987 293.058508 
C 229.185362 289.111056 223.587672 286.89309 217.751743 286.89309 
C 211.915813 286.89309 206.318123 289.111056 202.191498 293.058508 
C 198.064873 297.005959 195.746233 302.360603 195.746233 307.943142 
C 195.746233 313.525681 198.064873 318.880325 202.191498 322.827777 
C 206.318123 326.775228 211.915813 328.993194 217.751743 328.993194 
L 217.751743 328.993194 
z
" clip-path="url(#p4dd9a64b89)" style="fill: none; stroke: #ff0000; stroke-linejoin: miter"/>
   </g>
   <g id="patch_4">
    <path d="M 81.076485 119.944398 
C 86.912414 119.944398 92.510105 117.726432 96.63673 113.77898 
C 100.763355 109.831529 103.081994 104.476885 103.081994 98.894346 
C 103.081994 93.311807 100.763355 87.957163 96.63673 84.009711 
C 92.510105 80.06226 86.912414 77.844294 81.076485 77.844294 
C 75.240556 77.844294 69.642865 80.06226 65.51624 84.009711 
C 61.389615 87.957163 59.070976 93.311807 59.070976 98.894346 
C 59.070976 104.476885 61.389615 109.831529 65.51624 113.77898 
C 69.642865 117.726432 75.240556 119.944398 81.076485 119.944398 
L 81.076485 119.944398 
z
" clip-path="url(#p4dd9a64b89)" style="fill: none; stroke: #ff0000; stroke-linejoin: miter"/>
   </g>
   <g id="patch_5">
    <path d="M 174.280912 369.272116 
C 180.116841 369.272116 185.714532 367.05415 189.841157 363.106699 
C 193.967782 359.159247 196.286421 353.804603 196.286421 348.222064 
C 196.286421 342.639525 193.967782 337.284881 189.841157 333.33743 
C 185.714532 329.389978 180.116841 327.172012 174.280912 327.172012 
C 168.444983 327.172012 162.847292 329.389978 158.720667 333.33743 
C 154.594042 337.284881 152.275403 342.639525 152.275403 348.222064 
C 152.275403 353.804603 154.594042 359.159247 158.720667 363.106699 
C 162.847292 367.05415 168.444983 369.272116 174.280912 369.272116 
L 174.280912 369.272116 
z
" clip-path="url(#p4dd9a64b89)" style="fill: none; stroke: #ff0000; stroke-linejoin: miter"/>
   </g>
   <g id="patch_6">
    <path d="M 349.829397 440.511594 
C 355.665326 440.511594 361.263017 438.293628 365.389642 434.346176 
C 369.516267 430.398725 371.834906 425.044081 371.834906 419.461542 
C 371.834906 413.879003 369.516267 408.524359 365.389642 404.576907 
C 361.263017 400.629456 355.665326 398.41149 349.829397 398.41149 
C 343.993468 398.41149 338.395778 400.629456 334.269152 404.576907 
C 330.142527 408.524359 327.823888 413.879003 327.823888 419.461542 
C 327.823888 425.044081 330.142527 430.398725 334.269152 434.346176 
C 338.395778 438.293628 343.993468 440.511594 349.829397 440.511594 
L 349.829397 440.511594 
z
" clip-path="url(#p4dd9a64b89)" style="fill: none; stroke: #ff0000; stroke-linejoin: miter"/>
   </g>
   <g id="patch_7">
    <path d="M 258.708942 445.034634 
C 264.544871 445.034634 270.142561 442.816668 274.269186 438.869217 
C 278.395812 434.921765 280.714451 429.567121 280.714451 423.984582 
C 280.714451 418.402043 278.395812 413.047399 274.269186 409.099948 
C 270.142561 405.152496 264.544871 402.93453 258.708942 402.93453 
C 252.873012 402.93453 247.275322 405.152496 243.148697 409.099948 
C 239.022072 413.047399 236.703433 418.402043 236.703433 423.984582 
C 236.703433 429.567121 239.022072 434.921765 243.148697 438.869217 
C 247.275322 442.816668 252.873012 445.034634 258.708942 445.034634 
L 258.708942 445.034634 
z
" clip-path="url(#p4dd9a64b89)" style="fill: none; stroke: #ff0000; stroke-linejoin: miter"/>
   </g>
   <g id="patch_8">
    <path d="M 389.565945 507.94374 
C 395.401874 507.94374 400.999565 505.725773 405.12619 501.778322 
C 409.252815 497.830871 411.571454 492.476227 411.571454 486.893688 
C 411.571454 481.311149 409.252815 475.956504 405.12619 472.009053 
C 400.999565 468.061602 395.401874 465.843636 389.565945 465.843636 
C 383.730016 465.843636 378.132326 468.061602 374.0057 472.009053 
C 369.879075 475.956504 367.560436 481.311149 367.560436 486.893688 
C 367.560436 492.476227 369.879075 497.830871 374.0057 501.778322 
C 378.132326 505.725773 383.730016 507.94374 389.565945 507.94374 
L 389.565945 507.94374 
z
" clip-path="url(#p4dd9a64b89)" style="fill: none; stroke: #ff0000; stroke-linejoin: miter"/>
   </g>
   <g id="patch_9">
    <path d="M 179.035321 339.793928 
C 184.87125 339.793928 190.46894 337.575961 194.595565 333.62851 
C 198.72219 329.681059 201.04083 324.326415 201.04083 318.743876 
C 201.04083 313.161337 198.72219 307.806692 194.595565 303.859241 
C 190.46894 299.91179 184.87125 297.693824 179.035321 297.693824 
C 173.199391 297.693824 167.601701 299.91179 163.475076 303.859241 
C 159.348451 307.806692 157.029811 313.161337 157.029811 318.743876 
C 157.029811 324.326415 159.348451 329.681059 163.475076 333.62851 
C 167.601701 337.575961 173.199391 339.793928 179.035321 339.793928 
L 179.035321 339.793928 
z
" clip-path="url(#p4dd9a64b89)" style="fill: none; stroke: #ff0000; stroke-linejoin: miter"/>
   </g>
   <g id="patch_10">
    <path d="M 398.356057 227.778311 
C 404.191986 227.778311 409.789677 225.560345 413.916302 221.612893 
C 418.042927 217.665442 420.361566 212.310798 420.361566 206.728259 
C 420.361566 201.14572 418.042927 195.791076 413.916302 191.843624 
C 409.789677 187.896173 404.191986 185.678207 398.356057 185.678207 
C 392.520128 185.678207 386.922438 187.896173 382.795812 191.843624 
C 378.669187 195.791076 376.350548 201.14572 376.350548 206.728259 
C 376.350548 212.310798 378.669187 217.665442 382.795812 221.612893 
C 386.922438 225.560345 392.520128 227.778311 398.356057 227.778311 
L 398.356057 227.778311 
z
" clip-path="url(#p4dd9a64b89)" style="fill: none; stroke: #ff0000; stroke-linejoin: miter"/>
   </g>
   <g id="patch_11">
    <path d="M 374.041769 144.385627 
C 379.877698 144.385627 385.475388 142.16766 389.602013 138.220209 
C 393.728639 134.272758 396.047278 128.918114 396.047278 123.335575 
C 396.047278 117.753035 393.728639 112.398391 389.602013 108.45094 
C 385.475388 104.503489 379.877698 102.285523 374.041769 102.285523 
C 368.205839 102.285523 362.608149 104.503489 358.481524 108.45094 
C 354.354899 112.398391 352.03626 117.753035 352.03626 123.335575 
C 352.03626 128.918114 354.354899 134.272758 358.481524 138.220209 
C 362.608149 142.16766 368.205839 144.385627 374.041769 144.385627 
L 374.041769 144.385627 
z
" clip-path="url(#p4dd9a64b89)" style="fill: none; stroke: #ff0000; stroke-linejoin: miter"/>
   </g>
   <g id="patch_12">
    <path d="M 384.288337 523.924364 
C 390.124267 523.924364 395.721957 521.706397 399.848582 517.758946 
C 403.975207 513.811495 406.293846 508.456851 406.293846 502.874312 
C 406.293846 497.291773 403.975207 491.937128 399.848582 487.989677 
C 395.721957 484.042226 390.124267 481.82426 384.288337 481.82426 
C 378.452408 481.82426 372.854718 484.042226 368.728093 487.989677 
C 364.601467 491.937128 362.282828 497.291773 362.282828 502.874312 
C 362.282828 508.456851 364.601467 513.811495 368.728093 517.758946 
C 372.854718 521.706397 378.452408 523.924364 384.288337 523.924364 
L 384.288337 523.924364 
z
" clip-path="url(#p4dd9a64b89)" style="fill: none; stroke: #ff0000; stroke-linejoin: miter"/>
   </g>
   <g id="patch_13">
    <path d="M 182.618491 299.721214 
C 188.45442 299.721214 194.052111 297.503248 198.178736 293.555796 
C 202.305361 289.608345 204.624 284.253701 204.624 278.671162 
C 204.624 273.088623 202.305361 267.733979 198.178736 263.786527 
C 194.052111 259.839076 188.45442 257.62111 182.618491 257.62111 
C 176.782562 257.62111 171.184871 259.839076 167.058246 263.786527 
C 162.931621 267.733979 160.612982 273.088623 160.612982 278.671162 
C 160.612982 284.253701 162.931621 289.608345 167.058246 293.555796 
C 171.184871 297.503248 176.782562 299.721214 182.618491 299.721214 
L 182.618491 299.721214 
z
" clip-path="url(#p4dd9a64b89)" style="fill: none; stroke: #ff0000; stroke-linejoin: miter"/>
   </g>
   <g id="patch_14">
    <path d="M 372.221749 220.960888 
C 378.057678 220.960888 383.655368 218.742921 387.781993 214.79547 
C 391.908618 210.848019 394.227258 205.493375 394.227258 199.910836 
C 394.227258 194.328297 391.908618 188.973652 387.781993 185.026201 
C 383.655368 181.07875 378.057678 178.860784 372.221749 178.860784 
C 366.385819 178.860784 360.788129 181.07875 356.661504 185.026201 
C 352.534879 188.973652 350.216239 194.328297 350.216239 199.910836 
C 350.216239 205.493375 352.534879 210.848019 356.661504 214.79547 
C 360.788129 218.742921 366.385819 220.960888 372.221749 220.960888 
L 372.221749 220.960888 
z
" clip-path="url(#p4dd9a64b89)" style="fill: none; stroke: #ff0000; stroke-linejoin: miter"/>
   </g>
   <g id="patch_15">
    <path d="M 186.486404 387.125768 
C 192.322333 387.125768 197.920024 384.907802 202.046649 380.960351 
C 206.173274 377.012899 208.491913 371.658255 208.491913 366.075716 
C 208.491913 360.493177 206.173274 355.138533 202.046649 351.191082 
C 197.920024 347.24363 192.322333 345.025664 186.486404 345.025664 
C 180.650475 345.025664 175.052784 347.24363 170.926159 351.191082 
C 166.799534 355.138533 164.480895 360.493177 164.480895 366.075716 
C 164.480895 371.658255 166.799534 377.012899 170.926159 380.960351 
C 175.052784 384.907802 180.650475 387.125768 186.486404 387.125768 
L 186.486404 387.125768 
z
" clip-path="url(#p4dd9a64b89)" style="fill: none; stroke: #ff0000; stroke-linejoin: miter"/>
   </g>
   <g id="patch_16">
    <path d="M 219.545608 490.615892 
C 225.381538 490.615892 230.979228 488.397926 235.105853 484.450474 
C 239.232478 480.503023 241.551118 475.148379 241.551118 469.56584 
C 241.551118 463.983301 239.232478 458.628657 235.105853 454.681205 
C 230.979228 450.733754 225.381538 448.515788 219.545608 448.515788 
C 213.709679 448.515788 208.111989 450.733754 203.985364 454.681205 
C 199.858739 458.628657 197.540099 463.983301 197.540099 469.56584 
C 197.540099 475.148379 199.858739 480.503023 203.985364 484.450474 
C 208.111989 488.397926 213.709679 490.615892 219.545608 490.615892 
L 219.545608 490.615892 
z
" clip-path="url(#p4dd9a64b89)" style="fill: none; stroke: #ff0000; stroke-linejoin: miter"/>
   </g>
   <g id="patch_17">
    <path d="M 338.288697 385.606656 
C 344.124626 385.606656 349.722317 383.38869 353.848942 379.441238 
C 357.975567 375.493787 360.294206 370.139143 360.294206 364.556604 
C 360.294206 358.974065 357.975567 353.619421 353.848942 349.671969 
C 349.722317 345.724518 344.124626 343.506552 338.288697 343.506552 
C 332.452768 343.506552 326.855077 345.724518 322.728452 349.671969 
C 318.601827 353.619421 316.283188 358.974065 316.283188 364.556604 
C 316.283188 370.139143 318.601827 375.493787 322.728452 379.441238 
C 326.855077 383.38869 332.452768 385.606656 338.288697 385.606656 
L 338.288697 385.606656 
z
" clip-path="url(#p4dd9a64b89)" style="fill: none; stroke: #ff0000; stroke-linejoin: miter"/>
   </g>
   <g id="patch_18">
    <path d="M 479.470101 144.236645 
C 485.30603 144.236645 490.90372 142.018678 495.030345 138.071227 
C 499.156971 134.123776 501.47561 128.769132 501.47561 123.186593 
C 501.47561 117.604054 499.156971 112.249409 495.030345 108.301958 
C 490.90372 104.354507 485.30603 102.136541 479.470101 102.136541 
C 473.634171 102.136541 468.036481 104.354507 463.909856 108.301958 
C 459.783231 112.249409 457.464592 117.604054 457.464592 123.186593 
C 457.464592 128.769132 459.783231 134.123776 463.909856 138.071227 
C 468.036481 142.018678 473.634171 144.236645 479.470101 144.236645 
L 479.470101 144.236645 
z
" clip-path="url(#p4dd9a64b89)" style="fill: none; stroke: #ff0000; stroke-linejoin: miter"/>
   </g>
   <g id="patch_19">
    <path d="M 76.830236 246.589407 
C 82.666166 246.589407 88.263856 244.371441 92.390481 240.42399 
C 96.517106 236.476539 98.835746 231.121894 98.835746 225.539355 
C 98.835746 219.956816 96.517106 214.602172 92.390481 210.654721 
C 88.263856 206.70727 82.666166 204.489303 76.830236 204.489303 
C 70.994307 204.489303 65.396617 206.70727 61.269992 210.654721 
C 57.143367 214.602172 54.824727 219.956816 54.824727 225.539355 
C 54.824727 231.121894 57.143367 236.476539 61.269992 240.42399 
C 65.396617 244.371441 70.994307 246.589407 76.830236 246.589407 
L 76.830236 246.589407 
z
" clip-path="url(#p4dd9a64b89)" style="fill: none; stroke: #ff0000; stroke-linejoin: miter"/>
   </g>
   <g id="patch_20">
    <path d="M 236.335923 501.310762 
C 242.171852 501.310762 247.769542 499.092796 251.896168 495.145344 
C 256.022793 491.197893 258.341432 485.843249 258.341432 480.26071 
C 258.341432 474.678171 256.022793 469.323527 251.896168 465.376075 
C 247.769542 461.428624 242.171852 459.210658 236.335923 459.210658 
C 230.499994 459.210658 224.902303 461.428624 220.775678 465.376075 
C 216.649053 469.323527 214.330414 474.678171 214.330414 480.26071 
C 214.330414 485.843249 216.649053 491.197893 220.775678 495.145344 
C 224.902303 499.092796 230.499994 501.310762 236.335923 501.310762 
L 236.335923 501.310762 
z
" clip-path="url(#p4dd9a64b89)" style="fill: none; stroke: #ff0000; stroke-linejoin: miter"/>
   </g>
   <g id="patch_21">
    <path d="M 307.929683 497.01828 
C 313.765612 497.01828 319.363303 494.800314 323.489928 490.852863 
C 327.616553 486.905412 329.935192 481.550767 329.935192 475.968228 
C 329.935192 470.385689 327.616553 465.031045 323.489928 461.083594 
C 319.363303 457.136143 313.765612 454.918176 307.929683 454.918176 
C 302.093754 454.918176 296.496063 457.136143 292.369438 461.083594 
C 288.242813 465.031045 285.924174 470.385689 285.924174 475.968228 
C 285.924174 481.550767 288.242813 486.905412 292.369438 490.852863 
C 296.496063 494.800314 302.093754 497.01828 307.929683 497.01828 
L 307.929683 497.01828 
z
" clip-path="url(#p4dd9a64b89)" style="fill: none; stroke: #ff0000; stroke-linejoin: miter"/>
   </g>
   <g id="patch_22">
    <path d="M 489.507112 113.196936 
C 495.343041 113.196936 500.940731 110.97897 505.067356 107.031519 
C 509.193981 103.084068 511.512621 97.729423 511.512621 92.146884 
C 511.512621 86.564345 509.193981 81.209701 505.067356 77.26225 
C 500.940731 73.314799 495.343041 71.096832 489.507112 71.096832 
C 483.671182 71.096832 478.073492 73.314799 473.946867 77.26225 
C 469.820242 81.209701 467.501602 86.564345 467.501602 92.146884 
C 467.501602 97.729423 469.820242 103.084068 473.946867 107.031519 
C 478.073492 110.97897 483.671182 113.196936 489.507112 113.196936 
L 489.507112 113.196936 
z
" clip-path="url(#p4dd9a64b89)" style="fill: none; stroke: #ff0000; stroke-linejoin: miter"/>
   </g>
   <g id="matplotlib.axis_1">
    <g id="xtick_1">
     <g id="line2d_1">
      <defs>
       <path id="m299023c3c4" d="M 0 0 
L 0 3.5 
" style="stroke: #000000; stroke-width: 0.8"/>
      </defs>
      <g>
       <use xlink:href="#m299023c3c4" x="49.396929" y="548.352" style="stroke: #000000; stroke-width: 0.8"/>
      </g>
     </g>
     <g id="text_1">
      <!-- 0 -->
      <g transform="translate(46.215679 562.950438) scale(0.1 -0.1)">
       <defs>
        <path id="DejaVuSans-30" d="M 2034 4250 
Q 1547 4250 1301 3770 
Q 1056 3291 1056 2328 
Q 1056 1369 1301 889 
Q 1547 409 2034 409 
Q 2525 409 2770 889 
Q 3016 1369 3016 2328 
Q 3016 3291 2770 3770 
Q 2525 4250 2034 4250 
z
M 2034 4750 
Q 2819 4750 3233 4129 
Q 3647 3509 3647 2328 
Q 3647 1150 3233 529 
Q 2819 -91 2034 -91 
Q 1250 -91 836 529 
Q 422 1150 422 2328 
Q 422 3509 836 4129 
Q 1250 4750 2034 4750 
z
" transform="scale(0.015625)"/>
       </defs>
       <use xlink:href="#DejaVuSans-30"/>
      </g>
     </g>
    </g>
    <g id="xtick_2">
     <g id="line2d_2">
      <g>
       <use xlink:href="#m299023c3c4" x="137.418965" y="548.352" style="stroke: #000000; stroke-width: 0.8"/>
      </g>
     </g>
     <g id="text_2">
      <!-- 2 -->
      <g transform="translate(134.237715 562.950438) scale(0.1 -0.1)">
       <defs>
        <path id="DejaVuSans-32" d="M 1228 531 
L 3431 531 
L 3431 0 
L 469 0 
L 469 531 
Q 828 903 1448 1529 
Q 2069 2156 2228 2338 
Q 2531 2678 2651 2914 
Q 2772 3150 2772 3378 
Q 2772 3750 2511 3984 
Q 2250 4219 1831 4219 
Q 1534 4219 1204 4116 
Q 875 4013 500 3803 
L 500 4441 
Q 881 4594 1212 4672 
Q 1544 4750 1819 4750 
Q 2544 4750 2975 4387 
Q 3406 4025 3406 3419 
Q 3406 3131 3298 2873 
Q 3191 2616 2906 2266 
Q 2828 2175 2409 1742 
Q 1991 1309 1228 531 
z
" transform="scale(0.015625)"/>
       </defs>
       <use xlink:href="#DejaVuSans-32"/>
      </g>
     </g>
    </g>
    <g id="xtick_3">
     <g id="line2d_3">
      <g>
       <use xlink:href="#m299023c3c4" x="225.441002" y="548.352" style="stroke: #000000; stroke-width: 0.8"/>
      </g>
     </g>
     <g id="text_3">
      <!-- 4 -->
      <g transform="translate(222.259752 562.950438) scale(0.1 -0.1)">
       <defs>
        <path id="DejaVuSans-34" d="M 2419 4116 
L 825 1625 
L 2419 1625 
L 2419 4116 
z
M 2253 4666 
L 3047 4666 
L 3047 1625 
L 3713 1625 
L 3713 1100 
L 3047 1100 
L 3047 0 
L 2419 0 
L 2419 1100 
L 313 1100 
L 313 1709 
L 2253 4666 
z
" transform="scale(0.015625)"/>
       </defs>
       <use xlink:href="#DejaVuSans-34"/>
      </g>
     </g>
    </g>
    <g id="xtick_4">
     <g id="line2d_4">
      <g>
       <use xlink:href="#m299023c3c4" x="313.463038" y="548.352" style="stroke: #000000; stroke-width: 0.8"/>
      </g>
     </g>
     <g id="text_4">
      <!-- 6 -->
      <g transform="translate(310.281788 562.950438) scale(0.1 -0.1)">
       <defs>
        <path id="DejaVuSans-36" d="M 2113 2584 
Q 1688 2584 1439 2293 
Q 1191 2003 1191 1497 
Q 1191 994 1439 701 
Q 1688 409 2113 409 
Q 2538 409 2786 701 
Q 3034 994 3034 1497 
Q 3034 2003 2786 2293 
Q 2538 2584 2113 2584 
z
M 3366 4563 
L 3366 3988 
Q 3128 4100 2886 4159 
Q 2644 4219 2406 4219 
Q 1781 4219 1451 3797 
Q 1122 3375 1075 2522 
Q 1259 2794 1537 2939 
Q 1816 3084 2150 3084 
Q 2853 3084 3261 2657 
Q 3669 2231 3669 1497 
Q 3669 778 3244 343 
Q 2819 -91 2113 -91 
Q 1303 -91 875 529 
Q 447 1150 447 2328 
Q 447 3434 972 4092 
Q 1497 4750 2381 4750 
Q 2619 4750 2861 4703 
Q 3103 4656 3366 4563 
z
" transform="scale(0.015625)"/>
       </defs>
       <use xlink:href="#DejaVuSans-36"/>
      </g>
     </g>
    </g>
    <g id="xtick_5">
     <g id="line2d_5">
      <g>
       <use xlink:href="#m299023c3c4" x="401.485075" y="548.352" style="stroke: #000000; stroke-width: 0.8"/>
      </g>
     </g>
     <g id="text_5">
      <!-- 8 -->
      <g transform="translate(398.303825 562.950438) scale(0.1 -0.1)">
       <defs>
        <path id="DejaVuSans-38" d="M 2034 2216 
Q 1584 2216 1326 1975 
Q 1069 1734 1069 1313 
Q 1069 891 1326 650 
Q 1584 409 2034 409 
Q 2484 409 2743 651 
Q 3003 894 3003 1313 
Q 3003 1734 2745 1975 
Q 2488 2216 2034 2216 
z
M 1403 2484 
Q 997 2584 770 2862 
Q 544 3141 544 3541 
Q 544 4100 942 4425 
Q 1341 4750 2034 4750 
Q 2731 4750 3128 4425 
Q 3525 4100 3525 3541 
Q 3525 3141 3298 2862 
Q 3072 2584 2669 2484 
Q 3125 2378 3379 2068 
Q 3634 1759 3634 1313 
Q 3634 634 3220 271 
Q 2806 -91 2034 -91 
Q 1263 -91 848 271 
Q 434 634 434 1313 
Q 434 1759 690 2068 
Q 947 2378 1403 2484 
z
M 1172 3481 
Q 1172 3119 1398 2916 
Q 1625 2713 2034 2713 
Q 2441 2713 2670 2916 
Q 2900 3119 2900 3481 
Q 2900 3844 2670 4047 
Q 2441 4250 2034 4250 
Q 1625 4250 1398 4047 
Q 1172 3844 1172 3481 
z
" transform="scale(0.015625)"/>
       </defs>
       <use xlink:href="#DejaVuSans-38"/>
      </g>
     </g>
    </g>
    <g id="xtick_6">
     <g id="line2d_6">
      <g>
       <use xlink:href="#m299023c3c4" x="489.507112" y="548.352" style="stroke: #000000; stroke-width: 0.8"/>
      </g>
     </g>
     <g id="text_6">
      <!-- 10 -->
      <g transform="translate(483.144612 562.950438) scale(0.1 -0.1)">
       <defs>
        <path id="DejaVuSans-31" d="M 794 531 
L 1825 531 
L 1825 4091 
L 703 3866 
L 703 4441 
L 1819 4666 
L 2450 4666 
L 2450 531 
L 3481 531 
L 3481 0 
L 794 0 
L 794 531 
z
" transform="scale(0.015625)"/>
       </defs>
       <use xlink:href="#DejaVuSans-31"/>
       <use xlink:href="#DejaVuSans-30" x="63.623047"/>
      </g>
     </g>
    </g>
   </g>
   <g id="matplotlib.axis_2">
    <g id="ytick_1">
     <g id="line2d_7">
      <defs>
       <path id="m3a074f42db" d="M 0 0 
L -3.5 0 
" style="stroke: #000000; stroke-width: 0.8"/>
      </defs>
      <g>
       <use xlink:href="#m3a074f42db" x="30.528" y="513.147924" style="stroke: #000000; stroke-width: 0.8"/>
      </g>
     </g>
     <g id="text_7">
      <!-- 0 -->
      <g transform="translate(17.1655 516.947143) scale(0.1 -0.1)">
       <use xlink:href="#DejaVuSans-30"/>
      </g>
     </g>
    </g>
    <g id="ytick_2">
     <g id="line2d_8">
      <g>
       <use xlink:href="#m3a074f42db" x="30.528" y="428.947716" style="stroke: #000000; stroke-width: 0.8"/>
      </g>
     </g>
     <g id="text_8">
      <!-- 2 -->
      <g transform="translate(17.1655 432.746935) scale(0.1 -0.1)">
       <use xlink:href="#DejaVuSans-32"/>
      </g>
     </g>
    </g>
    <g id="ytick_3">
     <g id="line2d_9">
      <g>
       <use xlink:href="#m3a074f42db" x="30.528" y="344.747508" style="stroke: #000000; stroke-width: 0.8"/>
      </g>
     </g>
     <g id="text_9">
      <!-- 4 -->
      <g transform="translate(17.1655 348.546727) scale(0.1 -0.1)">
       <use xlink:href="#DejaVuSans-34"/>
      </g>
     </g>
    </g>
    <g id="ytick_4">
     <g id="line2d_10">
      <g>
       <use xlink:href="#m3a074f42db" x="30.528" y="260.5473" style="stroke: #000000; stroke-width: 0.8"/>
      </g>
     </g>
     <g id="text_10">
      <!-- 6 -->
      <g transform="translate(17.1655 264.346519) scale(0.1 -0.1)">
       <use xlink:href="#DejaVuSans-36"/>
      </g>
     </g>
    </g>
    <g id="ytick_5">
     <g id="line2d_11">
      <g>
       <use xlink:href="#m3a074f42db" x="30.528" y="176.347092" style="stroke: #000000; stroke-width: 0.8"/>
      </g>
     </g>
     <g id="text_11">
      <!-- 8 -->
      <g transform="translate(17.1655 180.146311) scale(0.1 -0.1)">
       <use xlink:href="#DejaVuSans-38"/>
      </g>
     </g>
    </g>
    <g id="ytick_6">
     <g id="line2d_12">
      <g>
       <use xlink:href="#m3a074f42db" x="30.528" y="92.146884" style="stroke: #000000; stroke-width: 0.8"/>
      </g>
     </g>
     <g id="text_12">
      <!-- 10 -->
      <g transform="translate(10.803 95.946103) scale(0.1 -0.1)">
       <use xlink:href="#DejaVuSans-31"/>
       <use xlink:href="#DejaVuSans-30" x="63.623047"/>
      </g>
     </g>
    </g>
   </g>
   <g id="line2d_13">
    <path d="M 62.586665 512.652199 
L 75.708651 511.663804 
L 88.709118 509.693619 
L 101.507914 506.753791 
L 114.02613 502.862443 
L 126.186587 498.043568 
L 137.914311 492.326875 
L 149.136997 485.74761 
L 159.785454 478.346337 
L 169.794031 470.168686 
L 179.235576 461.383136 
L 188.19018 452.117561 
L 196.826182 442.568408 
L 205.283241 432.870688 
L 221.941334 413.271541 
L 254.938231 373.82569 
L 304.372501 314.610297 
L 320.98898 294.978271 
L 329.708257 285.498524 
L 338.786826 276.381662 
L 348.585176 267.974274 
L 359.042897 260.328193 
L 370.095516 253.490561 
L 381.674887 247.503533 
L 393.644235 242.244518 
L 405.239091 237.609226 
L 417.168348 232.673359 
L 426.700675 228.361856 
L 435.621871 223.380161 
L 443.884608 217.894691 
L 451.394009 212.028149 
L 458.089167 205.904261 
L 464.076779 199.602697 
L 469.434549 193.219031 
L 474.138954 187.07572 
L 478.273127 181.32555 
L 495.737747 156.120254 
L 505.841922 142.331294 
L 508.188165 138.773736 
L 510.363168 135.125342 
L 512.297143 131.35164 
L 514.021296 127.48369 
L 515.565129 123.545019 
L 516.949585 119.551528 
L 518.197777 115.516595 
L 519.320823 111.447609 
L 520.327629 107.350681 
L 521.212569 103.228297 
L 521.942875 99.079374 
L 522.451143 94.903645 
L 522.702408 90.711172 
L 522.637739 86.512613 
L 522.251643 82.33032 
L 521.539117 78.188004 
L 520.497044 74.110677 
L 519.127486 70.123355 
L 517.435109 66.251113 
L 515.430346 62.517825 
L 513.125558 58.946508 
L 510.534954 55.55918 
L 507.674506 52.376726 
L 504.56185 49.418766 
L 501.216176 46.703537 
L 497.658112 44.247779 
L 493.909594 42.066632 
L 489.993734 40.173545 
L 485.934672 38.580189 
L 481.757436 37.296388 
L 477.48778 36.330055 
L 473.152026 35.68715 
L 468.776907 35.371636 
L 464.389396 35.385458 
L 460.016544 35.728532 
L 455.685311 36.39874 
L 451.4224 37.391953 
L 447.254094 38.702046 
L 443.206093 40.320942 
L 439.303352 42.23866 
L 435.569933 44.443377 
L 432.028856 46.921499 
L 428.70195 49.65775 
L 425.609729 52.635257 
L 422.771256 55.835665 
L 420.204032 59.239242 
L 417.923884 62.825003 
L 415.94487 66.570841 
L 414.279192 70.453661 
L 412.937119 74.449526 
L 411.926925 78.533798 
L 411.254839 82.681298 
L 410.925004 86.866454 
L 410.939453 91.063464 
L 411.298098 95.246451 
L 411.998728 99.389626 
L 413.037022 103.467445 
L 414.40658 107.454767 
L 416.098957 111.327009 
L 418.10372 115.060297 
L 420.408508 118.631614 
L 422.999112 122.018941 
L 425.847691 125.212186 
L 428.916965 128.216614 
L 432.167625 131.04599 
L 435.554118 133.728766 
L 439.04169 136.292872 
L 446.218176 141.164358 
L 453.581524 145.774783 
L 457.344954 147.953869 
L 461.190599 149.994493 
L 465.147274 151.821675 
L 469.211689 153.402493 
L 473.393234 154.673393 
L 477.666128 155.62654 
L 482.004028 156.256058 
L 486.380189 156.558065 
L 490.76763 156.5307 
L 495.139302 156.17413 
L 499.468252 155.490555 
L 503.72779 154.484188 
L 507.891654 153.161235 
L 511.934174 151.529852 
L 515.830425 149.600097 
L 519.556386 147.383867 
L 523.089086 144.894827 
L 526.406743 142.148321 
L 529.488904 139.161284 
L 532.316566 135.952131 
L 534.872295 132.540647 
L 537.140335 128.947866 
L 539.106702 125.195939 
L 540.759273 121.307997 
L 540.759273 121.307997 
" clip-path="url(#p4dd9a64b89)" style="fill: none; stroke: #1f77b4; stroke-width: 1.5; stroke-linecap: square"/>
   </g>
   <g id="line2d_14">
    <defs>
     <path id="mea628d40cd" d="M -3 3 
L 3 -3 
M -3 -3 
L 3 3 
" style="stroke: #ff7f0e"/>
    </defs>
    <g clip-path="url(#p4dd9a64b89)">
     <use xlink:href="#mea628d40cd" x="489.507112" y="92.146884" style="fill: #ff7f0e; stroke: #ff7f0e"/>
    </g>
   </g>
   <g id="patch_23">
    <path d="M 30.528 548.352 
L 30.528 10.944 
" style="fill: none; stroke: #000000; stroke-width: 0.8; stroke-linejoin: miter; stroke-linecap: square"/>
   </g>
   <g id="patch_24">
    <path d="M 565.056 548.352 
L 565.056 10.944 
" style="fill: none; stroke: #000000; stroke-width: 0.8; stroke-linejoin: miter; stroke-linecap: square"/>
   </g>
   <g id="patch_25">
    <path d="M 30.528 548.352 
L 565.056 548.352 
" style="fill: none; stroke: #000000; stroke-width: 0.8; stroke-linejoin: miter; stroke-linecap: square"/>
   </g>
   <g id="patch_26">
    <path d="M 30.528 10.944 
L 565.056 10.944 
" style="fill: none; stroke: #000000; stroke-width: 0.8; stroke-linejoin: miter; stroke-linecap: square"/>
   </g>
  </g>
 </g>
 <defs>
  <clipPath id="p4dd9a64b89">
   <rect x="30.528" y="10.944" width="534.528" height="537.408"/>
  </clipPath>
 </defs>
</svg>
