<?xml version="1.0" encoding="utf-8" standalone="no"?>
<!DOCTYPE svg PUBLIC "-//W3C//DTD SVG 1.1//EN"
  "http://www.w3.org/Graphics/SVG/1.1/DTD/svg11.dtd">
<svg xmlns:xlink="http://www.w3.org/1999/xlink" width="576pt" height="576pt" viewBox="0 0 576 576" xmlns="http://www.w3.org/2000/svg" version="1.1">
 <metadata>
  <rdf:RDF xmlns:dc="http://purl.org/dc/elements/1.1/" xmlns:cc="http://creativecommons.org/ns#" xmlns:rdf="http://www.w3.org/1999/02/22-rdf-syntax-ns#">
   <cc:Work>
    <dc:type rdf:resource="http://purl.org/dc/dcmitype/StillImage"/>
    <dc:date>2022-12-27T21:04:59.237852</dc:date>
    <dc:format>image/svg+xml</dc:format>
    <dc:creator>
     <cc:Agent>
      <dc:title>Matplotlib v3.6.2, https://matplotlib.org/</dc:title>
     </cc:Agent>
    </dc:creator>
   </cc:Work>
  </rdf:RDF>
 </metadata>
 <defs>
  <style type="text/css">*{stroke-linejoin: round; stroke-linecap: butt}</style>
 </defs>
 <g id="figure_1">
  <g id="patch_1">
   <path d="M 0 576 
L 576 576 
L 576 0 
L 0 0 
z
" style="fill: #ffffff"/>
  </g>
  <g id="axes_1">
   <g id="patch_2">
    <path d="M 30.49 548.12 
L 565.2 548.12 
L 565.2 10.8 
L 30.49 10.8 
z
" style="fill: #ffffff"/>
   </g>
   <g id="patch_3">
    <path d="M 314.23327 390.811275 
C 319.840754 390.811275 325.219324 388.518663 329.184414 384.438361 
C 333.149504 380.35806 335.377381 374.823206 335.377381 369.052788 
C 335.377381 363.282369 333.149504 357.747516 329.184414 353.667214 
C 325.219324 349.586912 319.840754 347.294301 314.23327 347.294301 
C 308.625786 347.294301 303.247216 349.586912 299.282126 353.667214 
C 295.317036 357.747516 293.089159 363.282369 293.089159 369.052788 
C 293.089159 374.823206 295.317036 380.35806 299.282126 384.438361 
C 303.247216 388.518663 308.625786 390.811275 314.23327 390.811275 
L 314.23327 390.811275 
z
" clip-path="url(#p0dde2c6822)" style="fill: none; stroke: #ff0000; stroke-linejoin: miter"/>
   </g>
   <g id="patch_4">
    <path d="M 362.725892 395.038869 
C 368.333375 395.038869 373.711946 392.746257 377.677036 388.665956 
C 381.642126 384.585654 383.870002 379.0508 383.870002 373.280382 
C 383.870002 367.509964 381.642126 361.97511 377.677036 357.894808 
C 373.711946 353.814506 368.333375 351.521895 362.725892 351.521895 
C 357.118408 351.521895 351.739837 353.814506 347.774748 357.894808 
C 343.809658 361.97511 341.581781 367.509964 341.581781 373.280382 
C 341.581781 379.0508 343.809658 384.585654 347.774748 388.665956 
C 351.739837 392.746257 357.118408 395.038869 362.725892 395.038869 
L 362.725892 395.038869 
z
" clip-path="url(#p0dde2c6822)" style="fill: none; stroke: #ff0000; stroke-linejoin: miter"/>
   </g>
   <g id="patch_5">
    <path d="M 271.585608 389.007674 
C 277.193092 389.007674 282.571662 386.715062 286.536752 382.63476 
C 290.501842 378.554459 292.729719 373.019605 292.729719 367.249187 
C 292.729719 361.478768 290.501842 355.943915 286.536752 351.863613 
C 282.571662 347.783311 277.193092 345.4907 271.585608 345.4907 
C 265.978124 345.4907 260.599554 347.783311 256.634464 351.863613 
C 252.669374 355.943915 250.441497 361.478768 250.441497 367.249187 
C 250.441497 373.019605 252.669374 378.554459 256.634464 382.63476 
C 260.599554 386.715062 265.978124 389.007674 271.585608 389.007674 
L 271.585608 389.007674 
z
" clip-path="url(#p0dde2c6822)" style="fill: none; stroke: #ff0000; stroke-linejoin: miter"/>
   </g>
   <g id="patch_6">
    <path d="M 257.596716 423.320957 
C 263.2042 423.320957 268.58277 421.028345 272.54786 416.948044 
C 276.51295 412.867742 278.740827 407.332888 278.740827 401.56247 
C 278.740827 395.792052 276.51295 390.257198 272.54786 386.176896 
C 268.58277 382.096594 263.2042 379.803983 257.596716 379.803983 
C 251.989232 379.803983 246.610661 382.096594 242.645572 386.176896 
C 238.680482 390.257198 236.452605 395.792052 236.452605 401.56247 
C 236.452605 407.332888 238.680482 412.867742 242.645572 416.948044 
C 246.610661 421.028345 251.989232 423.320957 257.596716 423.320957 
L 257.596716 423.320957 
z
" clip-path="url(#p0dde2c6822)" style="fill: none; stroke: #ff0000; stroke-linejoin: miter"/>
   </g>
   <g id="patch_7">
    <path d="M 218.235195 303.721356 
C 223.842679 303.721356 229.22125 301.428745 233.186339 297.348443 
C 237.151429 293.268141 239.379306 287.733287 239.379306 281.962869 
C 239.379306 276.192451 237.151429 270.657597 233.186339 266.577295 
C 229.22125 262.496994 223.842679 260.204382 218.235195 260.204382 
C 212.627711 260.204382 207.249141 262.496994 203.284051 266.577295 
C 199.318961 270.657597 197.091084 276.192451 197.091084 281.962869 
C 197.091084 287.733287 199.318961 293.268141 203.284051 297.348443 
C 207.249141 301.428745 212.627711 303.721356 218.235195 303.721356 
L 218.235195 303.721356 
z
" clip-path="url(#p0dde2c6822)" style="fill: none; stroke: #ff0000; stroke-linejoin: miter"/>
   </g>
   <g id="patch_8">
    <path d="M 362.112238 438.696389 
C 367.719721 438.696389 373.098292 436.403777 377.063382 432.323475 
C 381.028472 428.243174 383.256348 422.70832 383.256348 416.937902 
C 383.256348 411.167483 381.028472 405.63263 377.063382 401.552328 
C 373.098292 397.472026 367.719721 395.179415 362.112238 395.179415 
C 356.504754 395.179415 351.126183 397.472026 347.161094 401.552328 
C 343.196004 405.63263 340.968127 411.167483 340.968127 416.937902 
C 340.968127 422.70832 343.196004 428.243174 347.161094 432.323475 
C 351.126183 436.403777 356.504754 438.696389 362.112238 438.696389 
L 362.112238 438.696389 
z
" clip-path="url(#p0dde2c6822)" style="fill: none; stroke: #ff0000; stroke-linejoin: miter"/>
   </g>
   <g id="patch_9">
    <path d="M 280.748368 455.04919 
C 286.355852 455.04919 291.734422 452.756578 295.699512 448.676276 
C 299.664602 444.595975 301.892479 439.061121 301.892479 433.290703 
C 301.892479 427.520284 299.664602 421.985431 295.699512 417.905129 
C 291.734422 413.824827 286.355852 411.532216 280.748368 411.532216 
C 275.140884 411.532216 269.762314 413.824827 265.797224 417.905129 
C 261.832134 421.985431 259.604257 427.520284 259.604257 433.290703 
C 259.604257 439.061121 261.832134 444.595975 265.797224 448.676276 
C 269.762314 452.756578 275.140884 455.04919 280.748368 455.04919 
L 280.748368 455.04919 
z
" clip-path="url(#p0dde2c6822)" style="fill: none; stroke: #ff0000; stroke-linejoin: miter"/>
   </g>
   <g id="patch_10">
    <path d="M 303.836697 381.244921 
C 309.44418 381.244921 314.822751 378.952309 318.787841 374.872007 
C 322.752931 370.791705 324.980807 365.256852 324.980807 359.486434 
C 324.980807 353.716015 322.752931 348.181162 318.787841 344.10086 
C 314.822751 340.020558 309.44418 337.727947 303.836697 337.727947 
C 298.229213 337.727947 292.850642 340.020558 288.885553 344.10086 
C 284.920463 348.181162 282.692586 353.716015 282.692586 359.486434 
C 282.692586 365.256852 284.920463 370.791705 288.885553 374.872007 
C 292.850642 378.952309 298.229213 381.244921 303.836697 381.244921 
L 303.836697 381.244921 
z
" clip-path="url(#p0dde2c6822)" style="fill: none; stroke: #ff0000; stroke-linejoin: miter"/>
   </g>
   <g id="patch_11">
    <path d="M 206.560366 300.12915 
C 212.16785 300.12915 217.54642 297.836538 221.51151 293.756236 
C 225.4766 289.675934 227.704477 284.141081 227.704477 278.370663 
C 227.704477 272.600244 225.4766 267.065391 221.51151 262.985089 
C 217.54642 258.904787 212.16785 256.612175 206.560366 256.612175 
C 200.952882 256.612175 195.574311 258.904787 191.609222 262.985089 
C 187.644132 267.065391 185.416255 272.600244 185.416255 278.370663 
C 185.416255 284.141081 187.644132 289.675934 191.609222 293.756236 
C 195.574311 297.836538 200.952882 300.12915 206.560366 300.12915 
L 206.560366 300.12915 
z
" clip-path="url(#p0dde2c6822)" style="fill: none; stroke: #ff0000; stroke-linejoin: miter"/>
   </g>
   <g id="patch_12">
    <path d="M 465.003787 110.797519 
C 470.61127 110.797519 475.989841 108.504907 479.954931 104.424606 
C 483.920021 100.344304 486.147897 94.80945 486.147897 89.039032 
C 486.147897 83.268614 483.920021 77.73376 479.954931 73.653458 
C 475.989841 69.573156 470.61127 67.280545 465.003787 67.280545 
C 459.396303 67.280545 454.017732 69.573156 450.052643 73.653458 
C 446.087553 77.73376 443.859676 83.268614 443.859676 89.039032 
C 443.859676 94.80945 446.087553 100.344304 450.052643 104.424606 
C 454.017732 108.504907 459.396303 110.797519 465.003787 110.797519 
L 465.003787 110.797519 
z
" clip-path="url(#p0dde2c6822)" style="fill: none; stroke: #ff0000; stroke-linejoin: miter"/>
   </g>
   <g id="matplotlib.axis_1">
    <g id="xtick_1">
     <g id="line2d_1">
      <defs>
       <path id="ma7c956f027" d="M 0 0 
L 0 3.5 
" style="stroke: #000000; stroke-width: 0.8"/>
      </defs>
      <g>
       <use xlink:href="#ma7c956f027" x="42.121572" y="548.12" style="stroke: #000000; stroke-width: 0.8"/>
      </g>
     </g>
     <g id="text_1">
      <!-- 0 -->
      <g transform="translate(38.940322 562.718437) scale(0.1 -0.1)">
       <defs>
        <path id="DejaVuSans-30" d="M 2034 4250 
Q 1547 4250 1301 3770 
Q 1056 3291 1056 2328 
Q 1056 1369 1301 889 
Q 1547 409 2034 409 
Q 2525 409 2770 889 
Q 3016 1369 3016 2328 
Q 3016 3291 2770 3770 
Q 2525 4250 2034 4250 
z
M 2034 4750 
Q 2819 4750 3233 4129 
Q 3647 3509 3647 2328 
Q 3647 1150 3233 529 
Q 2819 -91 2034 -91 
Q 1250 -91 836 529 
Q 422 1150 422 2328 
Q 422 3509 836 4129 
Q 1250 4750 2034 4750 
z
" transform="scale(0.015625)"/>
       </defs>
       <use xlink:href="#DejaVuSans-30"/>
      </g>
     </g>
    </g>
    <g id="xtick_2">
     <g id="line2d_2">
      <g>
       <use xlink:href="#ma7c956f027" x="126.698015" y="548.12" style="stroke: #000000; stroke-width: 0.8"/>
      </g>
     </g>
     <g id="text_2">
      <!-- 2 -->
      <g transform="translate(123.516765 562.718437) scale(0.1 -0.1)">
       <defs>
        <path id="DejaVuSans-32" d="M 1228 531 
L 3431 531 
L 3431 0 
L 469 0 
L 469 531 
Q 828 903 1448 1529 
Q 2069 2156 2228 2338 
Q 2531 2678 2651 2914 
Q 2772 3150 2772 3378 
Q 2772 3750 2511 3984 
Q 2250 4219 1831 4219 
Q 1534 4219 1204 4116 
Q 875 4013 500 3803 
L 500 4441 
Q 881 4594 1212 4672 
Q 1544 4750 1819 4750 
Q 2544 4750 2975 4387 
Q 3406 4025 3406 3419 
Q 3406 3131 3298 2873 
Q 3191 2616 2906 2266 
Q 2828 2175 2409 1742 
Q 1991 1309 1228 531 
z
" transform="scale(0.015625)"/>
       </defs>
       <use xlink:href="#DejaVuSans-32"/>
      </g>
     </g>
    </g>
    <g id="xtick_3">
     <g id="line2d_3">
      <g>
       <use xlink:href="#ma7c956f027" x="211.274458" y="548.12" style="stroke: #000000; stroke-width: 0.8"/>
      </g>
     </g>
     <g id="text_3">
      <!-- 4 -->
      <g transform="translate(208.093208 562.718437) scale(0.1 -0.1)">
       <defs>
        <path id="DejaVuSans-34" d="M 2419 4116 
L 825 1625 
L 2419 1625 
L 2419 4116 
z
M 2253 4666 
L 3047 4666 
L 3047 1625 
L 3713 1625 
L 3713 1100 
L 3047 1100 
L 3047 0 
L 2419 0 
L 2419 1100 
L 313 1100 
L 313 1709 
L 2253 4666 
z
" transform="scale(0.015625)"/>
       </defs>
       <use xlink:href="#DejaVuSans-34"/>
      </g>
     </g>
    </g>
    <g id="xtick_4">
     <g id="line2d_4">
      <g>
       <use xlink:href="#ma7c956f027" x="295.850901" y="548.12" style="stroke: #000000; stroke-width: 0.8"/>
      </g>
     </g>
     <g id="text_4">
      <!-- 6 -->
      <g transform="translate(292.669651 562.718437) scale(0.1 -0.1)">
       <defs>
        <path id="DejaVuSans-36" d="M 2113 2584 
Q 1688 2584 1439 2293 
Q 1191 2003 1191 1497 
Q 1191 994 1439 701 
Q 1688 409 2113 409 
Q 2538 409 2786 701 
Q 3034 994 3034 1497 
Q 3034 2003 2786 2293 
Q 2538 2584 2113 2584 
z
M 3366 4563 
L 3366 3988 
Q 3128 4100 2886 4159 
Q 2644 4219 2406 4219 
Q 1781 4219 1451 3797 
Q 1122 3375 1075 2522 
Q 1259 2794 1537 2939 
Q 1816 3084 2150 3084 
Q 2853 3084 3261 2657 
Q 3669 2231 3669 1497 
Q 3669 778 3244 343 
Q 2819 -91 2113 -91 
Q 1303 -91 875 529 
Q 447 1150 447 2328 
Q 447 3434 972 4092 
Q 1497 4750 2381 4750 
Q 2619 4750 2861 4703 
Q 3103 4656 3366 4563 
z
" transform="scale(0.015625)"/>
       </defs>
       <use xlink:href="#DejaVuSans-36"/>
      </g>
     </g>
    </g>
    <g id="xtick_5">
     <g id="line2d_5">
      <g>
       <use xlink:href="#ma7c956f027" x="380.427344" y="548.12" style="stroke: #000000; stroke-width: 0.8"/>
      </g>
     </g>
     <g id="text_5">
      <!-- 8 -->
      <g transform="translate(377.246094 562.718437) scale(0.1 -0.1)">
       <defs>
        <path id="DejaVuSans-38" d="M 2034 2216 
Q 1584 2216 1326 1975 
Q 1069 1734 1069 1313 
Q 1069 891 1326 650 
Q 1584 409 2034 409 
Q 2484 409 2743 651 
Q 3003 894 3003 1313 
Q 3003 1734 2745 1975 
Q 2488 2216 2034 2216 
z
M 1403 2484 
Q 997 2584 770 2862 
Q 544 3141 544 3541 
Q 544 4100 942 4425 
Q 1341 4750 2034 4750 
Q 2731 4750 3128 4425 
Q 3525 4100 3525 3541 
Q 3525 3141 3298 2862 
Q 3072 2584 2669 2484 
Q 3125 2378 3379 2068 
Q 3634 1759 3634 1313 
Q 3634 634 3220 271 
Q 2806 -91 2034 -91 
Q 1263 -91 848 271 
Q 434 634 434 1313 
Q 434 1759 690 2068 
Q 947 2378 1403 2484 
z
M 1172 3481 
Q 1172 3119 1398 2916 
Q 1625 2713 2034 2713 
Q 2441 2713 2670 2916 
Q 2900 3119 2900 3481 
Q 2900 3844 2670 4047 
Q 2441 4250 2034 4250 
Q 1625 4250 1398 4047 
Q 1172 3844 1172 3481 
z
" transform="scale(0.015625)"/>
       </defs>
       <use xlink:href="#DejaVuSans-38"/>
      </g>
     </g>
    </g>
    <g id="xtick_6">
     <g id="line2d_6">
      <g>
       <use xlink:href="#ma7c956f027" x="465.003787" y="548.12" style="stroke: #000000; stroke-width: 0.8"/>
      </g>
     </g>
     <g id="text_6">
      <!-- 10 -->
      <g transform="translate(458.641287 562.718437) scale(0.1 -0.1)">
       <defs>
        <path id="DejaVuSans-31" d="M 794 531 
L 1825 531 
L 1825 4091 
L 703 3866 
L 703 4441 
L 1819 4666 
L 2450 4666 
L 2450 531 
L 3481 531 
L 3481 0 
L 794 0 
L 794 531 
z
" transform="scale(0.015625)"/>
       </defs>
       <use xlink:href="#DejaVuSans-31"/>
       <use xlink:href="#DejaVuSans-30" x="63.623047"/>
      </g>
     </g>
    </g>
    <g id="xtick_7">
     <g id="line2d_7">
      <g>
       <use xlink:href="#ma7c956f027" x="549.58023" y="548.12" style="stroke: #000000; stroke-width: 0.8"/>
      </g>
     </g>
     <g id="text_7">
      <!-- 12 -->
      <g transform="translate(543.21773 562.718437) scale(0.1 -0.1)">
       <use xlink:href="#DejaVuSans-31"/>
       <use xlink:href="#DejaVuSans-32" x="63.623047"/>
      </g>
     </g>
    </g>
   </g>
   <g id="matplotlib.axis_2">
    <g id="ytick_1">
     <g id="line2d_8">
      <defs>
       <path id="md62ad8f25d" d="M 0 0 
L -3.5 0 
" style="stroke: #000000; stroke-width: 0.8"/>
      </defs>
      <g>
       <use xlink:href="#md62ad8f25d" x="30.49" y="524.208772" style="stroke: #000000; stroke-width: 0.8"/>
      </g>
     </g>
     <g id="text_8">
      <!-- 0 -->
      <g transform="translate(17.1275 528.007991) scale(0.1 -0.1)">
       <use xlink:href="#DejaVuSans-30"/>
      </g>
     </g>
    </g>
    <g id="ytick_2">
     <g id="line2d_9">
      <g>
       <use xlink:href="#md62ad8f25d" x="30.49" y="437.174824" style="stroke: #000000; stroke-width: 0.8"/>
      </g>
     </g>
     <g id="text_9">
      <!-- 2 -->
      <g transform="translate(17.1275 440.974043) scale(0.1 -0.1)">
       <use xlink:href="#DejaVuSans-32"/>
      </g>
     </g>
    </g>
    <g id="ytick_3">
     <g id="line2d_10">
      <g>
       <use xlink:href="#md62ad8f25d" x="30.49" y="350.140876" style="stroke: #000000; stroke-width: 0.8"/>
      </g>
     </g>
     <g id="text_10">
      <!-- 4 -->
      <g transform="translate(17.1275 353.940095) scale(0.1 -0.1)">
       <use xlink:href="#DejaVuSans-34"/>
      </g>
     </g>
    </g>
    <g id="ytick_4">
     <g id="line2d_11">
      <g>
       <use xlink:href="#md62ad8f25d" x="30.49" y="263.106928" style="stroke: #000000; stroke-width: 0.8"/>
      </g>
     </g>
     <g id="text_11">
      <!-- 6 -->
      <g transform="translate(17.1275 266.906147) scale(0.1 -0.1)">
       <use xlink:href="#DejaVuSans-36"/>
      </g>
     </g>
    </g>
    <g id="ytick_5">
     <g id="line2d_12">
      <g>
       <use xlink:href="#md62ad8f25d" x="30.49" y="176.07298" style="stroke: #000000; stroke-width: 0.8"/>
      </g>
     </g>
     <g id="text_12">
      <!-- 8 -->
      <g transform="translate(17.1275 179.872199) scale(0.1 -0.1)">
       <use xlink:href="#DejaVuSans-38"/>
      </g>
     </g>
    </g>
    <g id="ytick_6">
     <g id="line2d_13">
      <g>
       <use xlink:href="#md62ad8f25d" x="30.49" y="89.039032" style="stroke: #000000; stroke-width: 0.8"/>
      </g>
     </g>
     <g id="text_13">
      <!-- 10 -->
      <g transform="translate(10.765 92.838251) scale(0.1 -0.1)">
       <use xlink:href="#DejaVuSans-31"/>
       <use xlink:href="#DejaVuSans-30" x="63.623047"/>
      </g>
     </g>
    </g>
   </g>
   <g id="line2d_14">
    <path d="M 54.795 523.696364 
L 67.403331 522.674705 
L 79.894899 520.638214 
L 92.19269 517.599446 
L 104.220884 513.577136 
L 115.905324 508.596082 
L 127.17397 502.686996 
L 137.957348 495.886307 
L 148.188975 488.235945 
L 157.805769 479.783077 
L 166.763358 470.593669 
L 175.144347 460.831084 
L 183.004034 450.598909 
L 190.490607 440.067365 
L 197.688292 429.321757 
L 204.645888 418.408608 
L 211.395596 407.357254 
L 217.96642 396.191631 
L 230.751859 373.640211 
L 237.154957 362.370162 
L 243.902074 351.322491 
L 250.983336 340.517007 
L 258.551057 330.052477 
L 266.448425 319.840652 
L 274.546065 309.79302 
L 291.068201 289.978724 
L 307.802434 270.352561 
L 341.494386 231.302781 
L 408.673833 153.775118 
L 411.442377 150.360103 
L 414.026627 146.920786 
L 416.456805 143.365332 
L 418.724377 139.697865 
L 420.82342 135.925338 
L 422.752823 132.058057 
L 424.508837 128.104261 
L 426.088022 124.072258 
L 427.488071 119.970716 
L 428.708824 115.808802 
L 429.753501 111.596142 
L 430.630176 107.342604 
L 431.353566 103.057923 
L 432.451331 94.431425 
L 433.43517 85.787836 
L 434.11439 81.49753 
L 435.016765 77.257521 
L 436.216145 73.096649 
L 437.712373 69.039464 
L 439.504324 65.111959 
L 441.585477 61.339082 
L 443.947436 57.745626 
L 446.576093 54.353949 
L 449.455241 51.184963 
L 452.567129 48.258204 
L 455.892571 45.591718 
L 459.411064 43.201944 
L 463.100916 41.103616 
L 466.939378 39.309671 
L 470.902784 37.831169 
L 474.966699 36.677226 
L 479.106067 35.854956 
L 483.295367 35.369428 
L 487.508772 35.223636 
L 491.720304 35.41848 
L 495.903998 35.952757 
L 500.03406 36.823173 
L 504.085026 38.024363 
L 508.031921 39.54892 
L 511.850411 41.387445 
L 515.516955 43.528604 
L 519.008945 45.959194 
L 522.304854 48.664231 
L 525.38436 51.627037 
L 528.228479 54.829346 
L 530.819673 58.251413 
L 533.141969 61.872142 
L 535.181048 65.669209 
L 536.924339 69.619203 
L 538.361094 73.697773 
L 539.482454 77.879771 
L 540.281507 82.139415 
L 540.753325 86.450443 
L 540.895 90.786275 
L 540.705658 95.12018 
L 540.186467 99.425437 
L 539.340628 103.675505 
L 538.173355 107.844178 
L 536.691846 111.905757 
L 534.905233 115.835199 
L 532.824533 119.60828 
L 530.462573 123.201736 
L 527.833916 126.593413 
L 524.954769 129.762399 
L 521.842881 132.689158 
L 518.517439 135.355644 
L 514.998946 137.745418 
L 511.309094 139.843746 
L 507.470632 141.637691 
L 503.507226 143.116193 
L 499.443311 144.270136 
L 495.303943 145.092406 
L 491.114642 145.577934 
L 486.901238 145.723726 
L 482.689705 145.528882 
L 478.506012 144.994605 
L 474.37595 144.124189 
L 470.324984 142.922999 
L 466.378089 141.398442 
L 462.559599 139.559917 
L 458.893055 137.418758 
L 455.401065 134.988168 
L 452.105156 132.283131 
L 449.024845 129.321123 
L 446.175967 126.122773 
L 443.571987 122.709769 
L 441.222739 119.105762 
L 439.136785 115.333661 
L 437.321699 111.415732 
L 435.784309 107.373741 
L 434.530882 103.229132 
L 433.567272 99.003222 
L 432.899011 94.717427 
L 432.531355 90.3935 
L 432.469274 86.053783 
L 432.717381 81.721472 
L 433.279794 77.420874 
L 434.159927 73.177657 
L 435.356369 69.017688 
L 436.865758 64.966994 
L 438.679335 61.050654 
L 440.785917 57.292813 
L 443.172518 53.716639 
L 445.824421 50.34418 
L 448.725279 47.196229 
L 448.725279 47.196229 
" clip-path="url(#p0dde2c6822)" style="fill: none; stroke: #1f77b4; stroke-width: 1.5; stroke-linecap: square"/>
   </g>
   <g id="line2d_15">
    <defs>
     <path id="md5acc38ea8" d="M -3 3 
L 3 -3 
M -3 -3 
L 3 3 
" style="stroke: #ff7f0e"/>
    </defs>
    <g clip-path="url(#p0dde2c6822)">
     <use xlink:href="#md5acc38ea8" x="465.003787" y="89.039032" style="fill: #ff7f0e; stroke: #ff7f0e"/>
    </g>
   </g>
   <g id="patch_13">
    <path d="M 30.49 548.12 
L 30.49 10.8 
" style="fill: none; stroke: #000000; stroke-width: 0.8; stroke-linejoin: miter; stroke-linecap: square"/>
   </g>
   <g id="patch_14">
    <path d="M 565.2 548.12 
L 565.2 10.8 
" style="fill: none; stroke: #000000; stroke-width: 0.8; stroke-linejoin: miter; stroke-linecap: square"/>
   </g>
   <g id="patch_15">
    <path d="M 30.49 548.12 
L 565.2 548.12 
" style="fill: none; stroke: #000000; stroke-width: 0.8; stroke-linejoin: miter; stroke-linecap: square"/>
   </g>
   <g id="patch_16">
    <path d="M 30.49 10.8 
L 565.2 10.8 
" style="fill: none; stroke: #000000; stroke-width: 0.8; stroke-linejoin: miter; stroke-linecap: square"/>
   </g>
  </g>
 </g>
 <defs>
  <clipPath id="p0dde2c6822">
   <rect x="30.49" y="10.8" width="534.71" height="537.32"/>
  </clipPath>
 </defs>
</svg>
